<?xml version="1.0" encoding="utf-8"?>
<!-- Generator: Adobe Illustrator 19.2.1, SVG Export Plug-In . SVG Version: 6.00 Build 0)  -->
<svg version="1.1" id="Layer_1" xmlns="http://www.w3.org/2000/svg" xmlns:xlink="http://www.w3.org/1999/xlink" x="0px" y="0px"
	 viewBox="0 0 1095.7 895.7" style="enable-background:new 0 0 1095.7 895.7;" xml:space="preserve">
<style type="text/css">
	.st0{fill:none;stroke:#FFFFFF;stroke-width:2;stroke-miterlimit:10;}
	.st1{fill:none;stroke:#FFFFFF;stroke-miterlimit:10;}
	.st2{fill:#FFFFFF;}
	.st3{fill:none;}
</style>
<g>
	<circle class="st0" cx="737.3" cy="632.8" r="39.7"/>
	<path class="st1" d="M760.6,632.8c0,12.9-10.5,23.4-23.4,23.4c-12.9,0-23.4-10.5-23.4-23.4c0-12.9,10.5-23.4,23.4-23.4
		C750.2,609.5,760.6,619.9,760.6,632.8"/>
	<path class="st2" d="M749.9,632.8c0,7-5.7,12.7-12.7,12.7c-7,0-12.7-5.7-12.7-12.7c0-7,5.7-12.7,12.7-12.7
		C744.3,620.2,749.9,625.8,749.9,632.8"/>
	<circle class="st0" cx="263.7" cy="632.8" r="39.7"/>
	<path class="st1" d="M287.1,632.8c0,12.9-10.5,23.4-23.4,23.4c-12.9,0-23.4-10.5-23.4-23.4c0-12.9,10.5-23.4,23.4-23.4
		C276.6,609.5,287.1,619.9,287.1,632.8"/>
	<path class="st2" d="M276.4,632.8c0,7-5.7,12.7-12.7,12.7c-7,0-12.7-5.7-12.7-12.7c0-7,5.7-12.7,12.7-12.7
		C270.7,620.2,276.4,625.8,276.4,632.8"/>
	<path class="st2" d="M501.3,231.5l230.4,399.1H270.9L501.3,231.5z M501.3,220.1L261.1,636.2h480.5L501.3,220.1z"/>
	<polygon class="st0" points="476.1,541.7 450.8,498 476.1,454.2 526.5,454.2 551.8,498 526.5,541.7 	"/>
	<path class="st1" d="M452.3,498c0,0,19.8-17.7,49-17.7c29.2,0,49,17.7,49,17.7s-19.3,18.6-49,18.6C471.6,516.5,452.3,498,452.3,498
		z"/>
	<circle class="st1" cx="501.3" cy="498.4" r="17.8"/>
	<g>
		<path class="st2" d="M306.4,495.4c0-91.1,63.4-167.8,148.4-188.1c1.4-2.3,2.9-4.7,3.7-7.1c-90.3,19-158.2,99.3-158.2,195.2
			c0,22.2,3.6,43.5,10.4,63.5c1.6-2,3.2-4.1,4.3-6.6C309.4,534.2,306.4,515.1,306.4,495.4z"/>
		<path class="st2" d="M356.9,634.4c2.9,0,5.7,0,8.6,0"/>
		<path class="st2" d="M314.9,552.2c-1,2.5-2.6,4.6-4.3,6.6"/>
		<path class="st2" d="M635.2,633.2c-34.9,34.3-82.7,55.5-135.4,55.5c-52.1,0-99.4-20.7-134.2-54.3c-2.9,0-5.7,0-8.6,0
			c36.3,37.2,86.9,60.4,142.8,60.4c56.6,0,107.7-23.7,144.1-61.7C641,632.8,638.1,633.1,635.2,633.2z"/>
		<path class="st2" d="M545.1,301.1c0.6,2.4,1.7,4.8,3,7c83.3,21.5,145,97.3,145,187.2c0,18.3-2.6,36-7.3,52.8
			c1.5,1.8,3.3,3.4,4.9,5.1c5.6-18.3,8.6-37.8,8.6-57.9C699.2,401,633.3,321.7,545.1,301.1z"/>
	</g>
	<path class="st2" d="M508.5,498.4c0,4-3.2,7.2-7.2,7.2c-4,0-7.2-3.2-7.2-7.2c0-4,3.2-7.2,7.2-7.2
		C505.3,491.2,508.5,494.4,508.5,498.4"/>
	<g>
		<path class="st3" d="M441.8,433.9H391l25.2,43.6C420.3,460.5,429.4,445.4,441.8,433.9z"/>
		<path class="st3" d="M476.5,581.9l24.8,43l24.8-43c-7.9,2.3-16.2,3.6-24.8,3.6C492.7,585.5,484.4,584.2,476.5,581.9z"/>
		<path class="st3" d="M586.4,477.5l25.2-43.6h-50.8C573.2,445.4,582.3,460.5,586.4,477.5z"/>
		<path class="st3" d="M418.4,498c0,32.4,18.7,60.4,45.8,74.1l-45.6-79C418.5,494.6,418.4,496.3,418.4,498z"/>
		<path class="st3" d="M501.3,415.1c-16.4,0-31.7,4.8-44.6,13.1h89.1C533,419.9,517.7,415.1,501.3,415.1z"/>
		<path class="st3" d="M584.2,498c0-1.7-0.1-3.3-0.2-5l-45.6,79C565.5,558.4,584.2,530.3,584.2,498z"/>
		<path class="st3" d="M553.7,433.9H448.9c-15,12.3-25.7,29.8-29.2,49.7l53.3,92.3c8.8,3.2,18.4,5,28.3,5c9.9,0,19.5-1.8,28.3-5
			l53.3-92.3C579.4,463.7,568.7,446.2,553.7,433.9z"/>
		<path class="st2" d="M582.9,483.6l3.5-6.1c-4.1-17-13.2-32.1-25.6-43.6h-7.1C568.7,446.2,579.4,463.7,582.9,483.6z"/>
		<path class="st2" d="M473,575.8l3.5,6.1c7.9,2.3,16.2,3.6,24.8,3.6c8.6,0,16.9-1.3,24.8-3.6l3.5-6.1c-8.8,3.2-18.4,5-28.3,5
			C491.4,580.8,481.8,579.1,473,575.8z"/>
		<path class="st2" d="M501.3,415.1c16.4,0,31.7,4.8,44.6,13.1h8.2c-14.7-11.1-33-17.8-52.8-17.8c-19.8,0-38.1,6.6-52.8,17.8h8.2
			C469.6,419.9,484.9,415.1,501.3,415.1z"/>
		<path class="st2" d="M584,493c0.1,1.6,0.2,3.3,0.2,5c0,32.4-18.7,60.4-45.8,74.1l-4,7c31.9-13.1,54.5-44.5,54.5-81.1
			c0-4.1-0.3-8-0.8-11.9L584,493z"/>
		<path class="st2" d="M418.4,498c0-1.7,0.1-3.3,0.2-5l-4-7c-0.5,3.9-0.8,7.9-0.8,11.9c0,36.6,22.6,68,54.5,81.1l-4-7
			C437.1,558.4,418.4,530.3,418.4,498z"/>
		<path class="st2" d="M545.9,428.2h-89.1c-2.7,1.7-5.3,3.6-7.8,5.7h104.8C551.2,431.8,548.6,429.9,545.9,428.2z"/>
		<path class="st2" d="M501.3,624.9l-24.8-43c-2.8-0.8-5.5-1.8-8.2-2.9l33,57.2l33-57.2c-2.7,1.1-5.4,2.1-8.2,2.9L501.3,624.9z"/>
		<path class="st2" d="M418.6,493l45.6,79c2.8,1.4,5.7,2.7,8.7,3.8l-53.3-92.3C419.2,486.7,418.8,489.8,418.6,493z"/>
		<path class="st2" d="M611.6,433.9l-25.2,43.6c0.7,2.8,1.2,5.7,1.6,8.6l33.4-57.9h-67.3c2.3,1.8,4.6,3.7,6.7,5.7H611.6z"/>
		<path class="st2" d="M391,433.9h50.8c2.2-2,4.4-3.9,6.7-5.7h-67.3l33.4,57.9c0.4-2.9,0.9-5.8,1.6-8.6L391,433.9z"/>
		<path class="st2" d="M582.9,483.6c0.5,3.1,0.9,6.2,1.1,9.4l4-7c-0.4-2.9-0.9-5.8-1.6-8.6L582.9,483.6z"/>
		<path class="st2" d="M529.6,575.8l-3.5,6.1c2.8-0.8,5.5-1.8,8.2-2.9l4-7C535.5,573.5,532.6,574.7,529.6,575.8z"/>
		<path class="st2" d="M448.9,433.9c2.5-2,5.1-3.9,7.8-5.7h-8.2c-2.3,1.8-4.6,3.7-6.7,5.7H448.9z"/>
		<path class="st2" d="M473,575.8c-3-1.1-5.9-2.4-8.7-3.8l4,7c2.7,1.1,5.4,2.1,8.2,2.9L473,575.8z"/>
		<path class="st2" d="M553.7,433.9h7.1c-2.2-2-4.4-3.9-6.7-5.7h-8.2C548.6,429.9,551.2,431.8,553.7,433.9z"/>
		<path class="st2" d="M419.7,483.6l-3.5-6.1c-0.7,2.8-1.2,5.7-1.6,8.6l4,7C418.8,489.8,419.2,486.7,419.7,483.6z"/>
	</g>
	<g>
		<path class="st2" d="M45.2,761.1l6-22.5h3.2l-2.6,9.7h12.9l2.6-9.7h3.2l-6,22.5h-3.2l2.6-9.6H51l-2.6,9.6H45.2z"/>
		<path class="st2" d="M68.3,761.1l14.7-22.5h3.2l2.7,22.5h-3.2l-0.6-5.2H74.9l-3.4,5.2H68.3z M77,752.7h7.7l-1.2-9.9L77,752.7z"/>
		<path class="st2" d="M93.7,757.9l4.3-16.1c0.1-0.4,0.3-0.9,0.6-1.2c0.3-0.4,0.6-0.7,1-1c0.4-0.3,0.8-0.5,1.2-0.7
			c0.4-0.2,0.9-0.3,1.3-0.3h12.2c0.4,0,0.8,0.1,1.2,0.3c0.3,0.2,0.6,0.4,0.8,0.7c0.2,0.3,0.4,0.6,0.4,1c0.1,0.4,0,0.8-0.1,1.2
			l-0.8,2.9h-3.2l0.8-2.9h-12.2l-4.3,16.1h12.2l0.8-2.9h3.2l-0.8,2.9c-0.1,0.4-0.3,0.9-0.6,1.2c-0.3,0.4-0.6,0.7-1,1
			c-0.4,0.3-0.8,0.5-1.2,0.7c-0.4,0.2-0.9,0.3-1.3,0.3H96c-0.4,0-0.8-0.1-1.2-0.3c-0.3-0.2-0.6-0.4-0.8-0.7c-0.2-0.3-0.4-0.6-0.4-1
			C93.5,758.7,93.5,758.3,93.7,757.9z"/>
		<path class="st2" d="M116.6,761.1l6-22.5h16.4l-0.9,3.2H125l-1.7,6.4h11.3l-0.9,3.2h-11.3l-1.7,6.4h13.2l-0.9,3.2H116.6z"/>
		<path class="st2" d="M137.9,761.1l6-22.5h12.3c3.6,0,5,1.8,4,5.5l-0.7,2.6c-0.8,3.1-2.7,4.9-5.5,5.4l1.8,9.1h-3.6l-1.8-9h-7.1
			l-2.4,9H137.9z M144.4,748.9h8.9c0.9,0,1.5-0.2,2-0.6c0.5-0.4,0.8-1,1.1-1.9l0.6-2.2c0.2-0.9,0.2-1.5-0.1-1.9
			c-0.3-0.4-0.8-0.6-1.7-0.6h-8.9L144.4,748.9z"/>
	</g>
	<polyline class="st0" points="263.7,632.9 173,766.8 24.6,766.8 	"/>
	<g>
		<path class="st2" d="M179.3,149.8l14.7-22.5h3.2l2.7,22.5h-3.2l-0.6-5.2h-10.2l-3.4,5.2H179.3z M188,141.4h7.7l-1.2-9.9L188,141.4
			z"/>
		<path class="st2" d="M203.8,149.8l6-22.5h12.3c3.6,0,5,1.8,4,5.5l-0.9,3.2c-1,3.7-3.3,5.5-6.9,5.5h-9.1l-2.2,8.4H203.8z
			 M210.1,138.3h8.9c0.9,0,1.5-0.2,2-0.6c0.5-0.4,0.8-1,1.1-1.9l0.8-2.9c0.2-0.9,0.2-1.5-0.1-1.9c-0.3-0.4-0.8-0.6-1.7-0.6h-8.9
			L210.1,138.3z"/>
		<path class="st2" d="M226.1,149.8l6-22.5h12.3c3.6,0,5,1.8,4,5.5l-0.7,2.6c-0.8,3.1-2.7,4.9-5.5,5.4l1.8,9.1h-3.6l-1.8-9h-7.1
			l-2.4,9H226.1z M232.6,137.6h8.9c0.9,0,1.5-0.2,2-0.6c0.5-0.4,0.8-1,1.1-1.9l0.6-2.2c0.2-0.9,0.2-1.5-0.1-1.9
			c-0.3-0.4-0.8-0.6-1.7-0.6h-8.9L232.6,137.6z"/>
		<path class="st2" d="M249.2,149.8l6-22.5h16.4l-0.9,3.2h-13.2l-1.7,6.4h11.3l-0.9,3.2H255l-1.7,6.4h13.2l-0.9,3.2H249.2z"/>
		<path class="st2" d="M270.5,149.8l6-22.5h3.2l8.9,17.5l4.7-17.5h3.2l-6,22.5h-3.2l-8.9-17.5l-4.7,17.5H270.5z"/>
		<path class="st2" d="M296.2,149.8l6-22.5h11.5c1.2,0,2.2,0.2,3.1,0.6c0.9,0.4,1.6,0.9,2.1,1.6c0.5,0.7,0.8,1.5,0.9,2.5
			c0.1,1,0,2.1-0.3,3.3l-1.8,6.8c-0.3,1.2-0.8,2.3-1.4,3.3c-0.6,1-1.4,1.8-2.3,2.5c-0.9,0.7-1.8,1.2-2.9,1.6
			c-1.1,0.4-2.2,0.6-3.4,0.6H296.2z M300.3,146.6h8.2c1.5,0,2.8-0.4,3.8-1.2c1-0.8,1.7-2,2.1-3.5l1.8-6.8c0.2-0.7,0.3-1.4,0.2-2
			c-0.1-0.6-0.2-1.1-0.5-1.5c-0.3-0.4-0.7-0.7-1.2-0.9c-0.5-0.2-1.1-0.3-1.9-0.3h-8.2L300.3,146.6z"/>
		<path class="st2" d="M320.7,149.8l6-22.5h16.4l-0.9,3.2h-13.2l-1.7,6.4h11.3l-0.9,3.2h-11.3l-1.7,6.4H338l-0.9,3.2H320.7z"/>
		<path class="st2" d="M342,149.8l6-22.5h12.3c3.6,0,5,1.8,4,5.5l-0.7,2.6c-0.8,3.1-2.7,4.9-5.5,5.4l1.8,9.1h-3.6l-1.8-9h-7.1
			l-2.4,9H342z M348.5,137.6h8.9c0.9,0,1.5-0.2,2-0.6c0.5-0.4,0.8-1,1.1-1.9l0.6-2.2c0.2-0.9,0.2-1.5-0.1-1.9
			c-0.3-0.4-0.8-0.6-1.7-0.6h-8.9L348.5,137.6z"/>
	</g>
	<polyline class="st0" points="501.5,220.1 384.1,155.5 160.1,155.5 	"/>
	<g>
		<path class="st2" d="M879.8,491.8l6-22.5h16.4l-0.9,3.2h-13.2l-1.7,6.4h11.3l-0.9,3.2h-11.3l-1.7,6.4H897l-0.9,3.2H879.8z"/>
		<path class="st2" d="M901,491.8l6-22.5h3.2l8.9,17.5l4.7-17.5h3.2l-6,22.5h-3.2l-8.9-17.5l-4.7,17.5H901z"/>
		<path class="st2" d="M927.3,488.6l0.8-2.9h3.2l-0.8,2.9h11.2l1.7-6.4h-10.9c-0.4,0-0.8-0.1-1.2-0.3c-0.3-0.2-0.6-0.4-0.8-0.7
			c-0.2-0.3-0.4-0.6-0.4-1c-0.1-0.4,0-0.8,0.1-1.2l1.7-6.4c0.1-0.4,0.3-0.9,0.6-1.2s0.6-0.7,1-1c0.4-0.3,0.8-0.5,1.2-0.7
			c0.4-0.2,0.9-0.3,1.3-0.3H947c0.4,0,0.8,0.1,1.2,0.3c0.3,0.2,0.6,0.4,0.8,0.7c0.2,0.3,0.4,0.6,0.4,1s0,0.8-0.1,1.2l-0.8,2.9h-3.2
			l0.8-2.9h-10.9l-1.7,6.4h10.9c0.4,0,0.8,0.1,1.2,0.3c0.3,0.2,0.6,0.4,0.8,0.7s0.4,0.6,0.4,1c0.1,0.4,0,0.8-0.1,1.2l-1.7,6.4
			c-0.1,0.4-0.3,0.9-0.6,1.2s-0.6,0.7-1,1c-0.4,0.3-0.8,0.5-1.2,0.7c-0.4,0.2-0.9,0.3-1.3,0.3h-11.2c-0.4,0-0.8-0.1-1.2-0.3
			c-0.3-0.2-0.6-0.4-0.8-0.7c-0.2-0.3-0.4-0.6-0.4-1C927.2,489.4,927.2,489,927.3,488.6z"/>
		<path class="st2" d="M949.9,491.8l6-22.5h16.4l-0.9,3.2h-13.2l-1.7,6.4h11.3l-0.9,3.2h-11.3l-1.7,6.4h13.2l-0.9,3.2H949.9z"/>
		<path class="st2" d="M971.2,491.8l6-22.5h3.2l8.9,17.5l4.7-17.5h3.2l-6,22.5h-3.2l-8.9-17.5l-4.7,17.5H971.2z M981.8,466.3
			c0.1-0.6,0.4-1.1,0.7-1.6c0.3-0.5,0.7-0.9,1.1-1.3c0.4-0.4,0.9-0.6,1.4-0.8c0.5-0.2,1.1-0.3,1.6-0.3c0.6,0,1,0.1,1.4,0.2
			c0.4,0.2,0.7,0.3,1,0.5c0.3,0.2,0.6,0.4,0.9,0.5c0.3,0.2,0.6,0.2,1.1,0.2c0.5,0,0.9-0.2,1.2-0.5c0.4-0.3,0.6-0.7,0.8-1.1h2.2
			c-0.2,0.6-0.4,1.1-0.7,1.6c-0.3,0.5-0.7,0.9-1.1,1.3s-0.9,0.6-1.4,0.8c-0.5,0.2-1.1,0.3-1.6,0.3c-0.6,0-1.1-0.1-1.4-0.2
			s-0.7-0.3-1-0.5c-0.3-0.2-0.6-0.4-0.9-0.5c-0.3-0.2-0.6-0.2-1-0.2c-0.5,0-0.9,0.2-1.2,0.5c-0.4,0.3-0.6,0.7-0.7,1.1H981.8z"/>
		<path class="st2" d="M995,491.8l14.7-22.5h3.2l2.7,22.5h-3.2l-0.6-5.2h-10.2l-3.4,5.2H995z M1003.7,483.4h7.7l-1.2-9.9
			L1003.7,483.4z"/>
		<path class="st2" d="M1019.5,491.8l6-22.5h12.3c3.6,0,5,1.8,4,5.5l-0.7,2.6c-0.8,3.1-2.7,4.9-5.5,5.4l1.8,9.1h-3.6l-1.8-9h-7.1
			l-2.4,9H1019.5z M1026,479.6h8.9c0.9,0,1.5-0.2,2-0.6c0.5-0.4,0.8-1,1.1-1.9l0.6-2.2c0.2-0.9,0.2-1.5-0.1-1.9
			c-0.3-0.4-0.8-0.6-1.7-0.6h-8.9L1026,479.6z"/>
	</g>
	<polyline class="st0" points="738,633.2 847.4,497.3 1073.1,497.3 	"/>
	<g>
		<path class="st2" d="M1076.5,497.3c0,3.1-2.5,5.5-5.5,5.5c-3.1,0-5.5-2.5-5.5-5.5c0-3.1,2.5-5.5,5.5-5.5
			C1074,491.7,1076.5,494.2,1076.5,497.3"/>
		<g>
			<ellipse class="st0" cx="501.5" cy="223.2" rx="39.7" ry="39.7"/>
			<path class="st1" d="M524.9,223.2c0,12.9-10.5,23.4-23.4,23.4c-12.9,0-23.4-10.5-23.4-23.4c0-12.9,10.5-23.4,23.4-23.4
				C514.4,199.9,524.9,210.3,524.9,223.2"/>
			<path class="st2" d="M514.2,223.2c0,7-5.7,12.7-12.7,12.7c-7,0-12.7-5.7-12.7-12.7s5.7-12.7,12.7-12.7
				C508.5,210.6,514.2,216.2,514.2,223.2"/>
			<line class="st0" x1="270.6" y1="593.7" x2="469.4" y2="246.6"/>
			<line class="st0" x1="532.7" y1="246.6" x2="732.6" y2="593.1"/>
			<line class="st0" x1="701.5" y1="648.2" x2="301.5" y2="648.1"/>
			<path class="st2" d="M178.4,767.7c0,3.1-2.5,5.5-5.5,5.5s-5.5-2.5-5.5-5.5c0-3.1,2.5-5.5,5.5-5.5S178.4,764.7,178.4,767.7"/>
			<path class="st2" d="M30.3,766.8c0,3.1-2.5,5.5-5.5,5.5c-3.1,0-5.5-2.5-5.5-5.5c0-3.1,2.5-5.5,5.5-5.5
				C27.9,761.3,30.3,763.8,30.3,766.8"/>
			<path class="st2" d="M853.4,498.7c0,3.1-2.5,5.5-5.5,5.5c-3.1,0-5.5-2.5-5.5-5.5c0-3.1,2.5-5.5,5.5-5.5
				C851,493.2,853.4,495.6,853.4,498.7"/>
			<path class="st2" d="M389.5,156.4c0,3.1-2.5,5.5-5.5,5.5c-3.1,0-5.5-2.5-5.5-5.5c0-3.1,2.5-5.5,5.5-5.5
				C387,150.9,389.5,153.4,389.5,156.4"/>
			<path class="st2" d="M162.8,155.5c0,3.1-2.5,5.5-5.5,5.5c-3.1,0-5.5-2.5-5.5-5.5s2.5-5.5,5.5-5.5
				C160.3,150,162.8,152.4,162.8,155.5"/>
		</g>
	</g>
</g>
</svg>
