<?xml version="1.0" encoding="utf-8"?>
<!-- Generator: Adobe Illustrator 19.2.1, SVG Export Plug-In . SVG Version: 6.00 Build 0)  -->
<svg version="1.1" id="Layer_1" xmlns="http://www.w3.org/2000/svg" xmlns:xlink="http://www.w3.org/1999/xlink" x="0px" y="0px"
	 viewBox="0 0 688.7 671.6" style="enable-background:new 0 0 688.7 671.6;" xml:space="preserve">
<style type="text/css">
	.st0{fill:#FF3366;}
</style>
<g>
	<path class="st0" d="M328.1,318.2c-9.2,9.7-8.8,24.7,0.7,33.9c9.7,9.2,24.7,8.8,33.9-0.7c9.2-9.7,8.8-24.7-0.7-33.9
		C352.3,308.3,337.1,308.7,328.1,318.2z"/>
	<path class="st0" d="M653.5,272.2c11.9-12.3,11.4-31.9-0.9-43.8c-9.5-9.2-23.4-11-34.7-5.7L419,32L186.9,99.3
		c-3.3-7-7.8-13.4-13.6-18.9c-11.9-11.4-27.3-17.6-43.8-17.6c-17.4,0-33.7,7-45.8,19.6c-24.2,25.1-23.6,65.4,1.8,89.6
		c5,4.9,10.8,8.9,17.1,11.8L52.9,385.5c-8.4-0.2-16.9,3-23.2,9.5c-11.9,12.3-11.4,31.9,0.9,43.8c9.7,9.4,23.9,11.1,35.3,5.4
		l203.6,195.5l225.7-65.5c3.8,8,9.1,15.3,15.6,21.7c14.1,13.2,32.4,20.7,51.7,20.7c20.5,0,39.6-8.1,53.9-22.9
		c28.4-29.7,27.5-77.1-2.2-105.5c-7.2-6.9-15.6-12.1-24.6-15.6l47.2-191.4C643,280,648.9,277,653.5,272.2z M80.9,428.1
		c1.2-3.1,1.9-6.3,2.2-9.5l62.4-18L288,537.3l-17.8,72.4L80.9,428.1z M602.7,238.5c-2.2,5.1-2.9,10.7-2.2,16.1l-57.1,16.5
		l-142.7-137l17.8-72.4L602.7,238.5z M201.7,199.1l28.4-8.2L391.5,144L534,280.8l-45.3,184.3l-93.4-91.4
		c19.8-25.4,17.5-62.1-6.2-84.8c-11.9-11.2-27.5-17.6-44-17.6c-17.4,0-33.7,7-45.8,19.6c-11.7,12.3-18.1,28.4-17.6,45.4
		c0.4,17,7.3,32.8,19.6,44.5c11.9,11.2,27.5,17.6,44,17.6c15.4,0,29.7-5.4,40.9-15.1l93.4,91.4l-20.9,6.1l-161.6,46.9L154.6,390.9
		L201.7,199.1z M381.4,369.7c-9.7,9.9-22.5,15.4-36.3,15.4c-13,0-25.3-5.1-34.8-14.1c-9.7-9.2-15.2-21.8-15.4-35.2
		c-0.2-13.4,4.8-26.2,14.1-35.9c9.7-9.9,22.5-15.4,36.3-15.4c13.2,0,25.5,4.8,34.6,14.1C399.9,317.8,400.5,349.7,381.4,369.7z
		 M300.8,540.4l28.2-8.2l161.6-46.9l12.4,11.9c-10,13.4-15.4,29.6-15,46.5c0.1,3.2,0.4,6.4,0.8,9.5l-205.9,59.8L300.8,540.4z
		 M501.2,543.4c-0.2-13.5,3.8-26.2,11.5-37L535,528c-2,4-3.1,8.3-3.3,12.6l-30.1,8.7C501.4,547.5,501.2,545.5,501.2,543.4z
		 M543.5,517.7l-22-21.2c11.3-10.3,25.6-15.9,41.1-15.9c0.8,0,1.7,0,2.5,0.1l-7.6,30.7C552.5,512.3,547.7,514.4,543.5,517.7z
		 M562.6,467.5c-19.2,0-36.9,7-50.7,19.8l-12.2-11.7l4.3-17.5L546.9,284l58.1-16.9c1.3,2.1,2.9,4.1,4.8,5.9c1.7,1.6,3.5,3,5.5,4.2
		l-46.9,190.5C566.4,467.6,564.5,467.5,562.6,467.5z M192.9,124.9c0-1.5-0.1-2.9-0.3-4.4L406,58.7l-17.9,72.6l-190,55.2l-20.2-19.3
		C187.9,155.4,193.3,140.5,192.9,124.9z M92.9,91.4c9.7-9.9,22.5-15.4,36.3-15.4c13.2,0,25.5,5.1,34.8,13.7
		c9.7,9.2,15.2,21.8,15.4,35.2c0.4,13.4-4.6,26.2-13.9,35.9c-9.7,9.9-22.5,15.4-36.3,15.4c-13,0-25.3-4.8-34.8-13.9
		C74.4,143.1,73.8,111.4,92.9,91.4z M123.8,189.4c1.8,0.2,3.6,0.2,5.5,0.2c14.4,0,27.8-4.6,38.9-13.2l20.5,19.6l-47.1,191.8
		L81,405.3c-1.6-4.1-4.1-7.9-7.4-11.1c0,0,0,0-0.1-0.1L123.8,189.4z M605.1,497.9c24.4,23.3,25.1,62.3,1.8,86.8
		c-11.7,12.3-27.3,18.9-44.3,18.9c-15.9,0-31-6.2-42.5-17.2c-4.9-4.7-8.9-10.1-12-15.9l30.6-8.9c0.8,1,1.6,1.9,2.5,2.8
		c12.3,11.9,31.9,11.4,43.8-0.9c11.9-12.3,11.4-31.9-0.9-43.8c-1.6-1.5-3.3-2.8-5-3.9l7.4-30.2C593.4,488.4,599.7,492.5,605.1,497.9
		z"/>
	<path class="st0" d="M151.7,147.8c11.9-12.3,11.4-31.9-0.9-43.8c-12.3-11.9-31.9-11.4-43.8,0.9c-11.9,12.3-11.4,31.9,0.9,43.8
		C120.2,160.5,139.8,160.1,151.7,147.8z"/>
</g>
</svg>
