<?xml version="1.0" encoding="utf-8"?>
<!-- Generator: Adobe Illustrator 19.2.1, SVG Export Plug-In . SVG Version: 6.00 Build 0)  -->
<svg version="1.1" id="Layer_1" xmlns="http://www.w3.org/2000/svg" xmlns:xlink="http://www.w3.org/1999/xlink" x="0px" y="0px"
	 viewBox="0 0 532.3 741.9" style="enable-background:new 0 0 532.3 741.9;" xml:space="preserve">
<style type="text/css">
	.st0{fill:#FF1F71;}
</style>
<g>
	<path class="st0" d="M312.7,518.3c-12.1,12.9-11.3,33.1,1.6,45.1c12.9,12.1,32.9,11.3,44.9-1.6c12.1-12.9,11.3-32.9-1.6-44.9
		C344.6,504.8,324.6,505.6,312.7,518.3z"/>
	<path class="st0" d="M531.6,141.2c-3.8-16.4-19.8-26.5-36-23c-10.2,2.4-18.1,9.3-21.6,18.4l-152-4.2h-0.2c-0.1,0-0.2,0.2-0.4,0.3
		c-0.2-1.1-0.4-2.1-0.6-3.3c-5.7-26.5-29.7-45.7-56.8-45.7c-4.2,0-8.5,0.4-12.7,1.4c-4.6,1.1-8.9,2.7-13,4.7l-31-39.9
		c5.8-7,8.5-16.5,6.4-26.1c-3.8-16.4-20-26.7-36.4-23.2c-16.2,3.8-26.7,20-23,36.4c3.6,16.4,19.8,26.7,36.2,23.2
		c2.6-0.6,5.1-1.5,7.3-2.7L228,96.3c-5.2,4-9.7,9-13.3,14.6c-8.3,13.1-11.1,28.7-7.7,43.9c3.3,15.4,12.8,28.3,25.4,36.4
		c-0.2,0.4-0.4,0.8-0.5,1.2l-35.5,106.7c-8.8,0.2-17.6,3.7-24.1,10.7c-8.5,9.3-10.9,21.9-7.5,33.1L118.3,367
		c-3.4-6-7.7-11.6-13-16.3c-11.7-10.5-26.5-16.2-42.2-16.2c-17.8,0-35,7.7-46.9,21c-23.4,25.9-21.2,65.9,4.8,89.1
		c11.7,10.5,26.5,16.2,42.2,16.2c18,0,35-7.5,46.9-21c11.3-12.5,17-28.7,16-45.5c-0.3-5.6-1.3-11-2.9-16.1l47.3-24.4
		c1.1,1.4,2.4,2.8,3.8,4.1c9.2,8.5,21.6,11,32.6,7.8l85.2,127.9c-1,1-2,1.9-3,3c-11.5,12.7-17.6,28.9-17,45.9
		c0.6,16.1,6.9,30.6,17.1,41.4l-18.7,21.7c-11.5-6.4-26.4-4.5-35.6,5.8c-11.1,11.7-10.5,30.3,1.4,41.4c11.7,11.1,30.3,10.5,41.4-1.4
		c9.9-10.6,10.5-26.7,2-37.8l18.6-21.6c10.6,7.7,23.7,12.3,37.9,12.3c0.6,0,1.4,0,2.2-0.2c11.2-0.4,21.9-3.7,31.3-9.5l65,88.4
		c-0.2,0.2-0.5,0.5-0.7,0.7c-6.3,6.9-9.5,16-8.9,25.3s4.8,17.8,11.7,24.1c6.3,5.7,14.6,8.9,23.4,8.9c10.1,0,19.6-4.2,26.1-11.5
		c12.9-14.4,11.7-36.8-2.8-49.7c-6.3-5.7-14.6-8.9-23.4-8.9c-5.5,0-10.8,1.3-15.6,3.8L379,587.1c1.2-1.1,2.4-2.3,3.6-3.5
		c11.5-12.7,17.6-28.9,17-45.9c-1-29.6-21.8-53.7-49.5-60l8.9-135.1c4.2-1.4,8.1-3.9,11.3-7.4c7.5-8.2,8.7-19.9,4.2-29.2
		l116.4-130.4c5.5,2.2,11.7,2.9,18,1.5C525.1,173.5,535.1,157.5,531.6,141.2z M101.1,431.6c-9.7,10.7-23.6,16.8-38,16.8
		c-12.7,0-24.7-4.8-34-13.1c-21-18.6-22.8-50.9-4-71.8c9.7-10.7,23.6-16.8,38-16.8c12.7,0,24.7,4.8,34,12.9
		c10.1,9.1,16,21.6,16.8,35.2C114.8,408.4,110.2,421.5,101.1,431.6z M459.7,679.8c6.7,0,13.3,2.6,18,6.7c11.1,10.1,11.9,27.1,2,38.2
		c-5.1,5.5-12.5,8.9-20.2,8.9c-6.7,0-13.1-2.4-18-6.9c-5.3-4.8-8.5-11.5-8.9-18.6c-0.4-6.9,2-13.5,6.4-18.8l7.4,10.1
		c-3.3,6-2.3,13.7,2.9,18.6c6.1,5.7,15.8,5.3,21.6-0.8c5.7-6.1,5.3-15.8-0.8-21.6c-3.9-3.6-9.2-4.8-14.1-3.6l-7.3-9.9
		C452.2,680.6,455.9,679.8,459.7,679.8z M218.7,152.5c-2.6-12.1-0.4-24.3,6.1-34.8c3.8-6,8.8-11,14.7-14.6c0.1,0,0.1-0.1,0.2-0.1
		c4.3-2.6,9-4.5,14.1-5.7c3.4-0.8,6.7-1.2,10.1-1.2c21.6,0,40.4,15.2,44.9,36.2c2.6,12.1,0.4,24.3-6.1,34.8s-16.8,17.6-28.9,20.4
		c-3.4,0.8-6.7,1.2-10.1,1.2C242.2,188.7,223.4,173.5,218.7,152.5z M251.1,199.2c4.1,0.9,8.4,1.4,12.7,1.4c4.2,0,8.5-0.4,12.7-1.4
		c15.2-3.6,28.3-12.7,36.6-25.7c4-6.3,6.7-13.2,8.1-20.4c0.1,0,0.3,0,0.4,0l152,4c0.6,1.7,1.3,3.4,2.2,5L359.4,292.5
		c-9.8-3.5-21.2-0.9-28.5,7.3c-3.8,4.1-5.9,9.1-6.6,14.3l-94.6,9.5c-1.6-5.7-4.8-11-9.4-15.3c-1.4-1.3-2.8-2.4-4.3-3.4L251.1,199.2z
		 M223.6,354.4c4.4-5.5,6.9-12.1,7.4-18.7l94.6-9.5c1.4,4.1,3.9,7.9,7.4,11c1.8,1.7,3.8,3,5.9,4.1l-8.9,135.1
		c-7.4,0.7-14.6,2.7-21.3,5.8L223.6,354.4z M387.5,538.3c0.6,13.9-4.4,27.1-13.9,37.2c-2,2.2-4.1,4.1-6.4,5.9c0,0-0.1,0-0.1,0.1
		c0,0-0.1-0.2-0.1-0.1c-8.4,6.4-18.6,10.2-29.4,10.2c-0.6,0-1.2,0-1.8,0c-27.9,0-50.7-21.5-51.7-49.7c-0.6-13.9,4.6-27,13.9-37.1
		c9.3-10.1,22.2-16.3,36-16.3c0.6,0,1.2,0,1.8,0C363.9,488.4,386.5,510.4,387.5,538.3z"/>
	<path class="st0" d="M78.5,380.7c-9.5-8.5-23.9-7.7-32.3,1.8c-8.5,9.3-7.7,23.8,1.8,32.3c9.3,8.5,23.8,7.7,32.3-1.8
		C88.8,403.7,88,389.2,78.5,380.7z"/>
	<path class="st0" d="M270.3,172.1c16.4-3.8,26.7-20,23.2-36.4c-3.6-16.4-19.8-26.7-36.2-23.2c-16.4,3.8-26.7,20-23.4,36.4
		C237.7,165.4,253.9,175.7,270.3,172.1z"/>
</g>
</svg>
