<?xml version="1.0" encoding="utf-8"?>
<!-- Generator: Adobe Illustrator 18.1.1, SVG Export Plug-In . SVG Version: 6.00 Build 0)  -->
<svg version="1.1" id="Layer_1" xmlns="http://www.w3.org/2000/svg" xmlns:xlink="http://www.w3.org/1999/xlink" x="0px" y="0px"
	 viewBox="0 0 688.7 671.6" enable-background="new 0 0 688.7 671.6" xml:space="preserve">
<g>
	<path fill="#FF1F71" d="M64.7,304.8c-18.2,4.8-28.7,23.4-23.9,41.6c5,17.9,23.7,28.7,41.6,23.9c18.2-4.8,28.7-23.4,23.9-41.6
		C101.5,310.5,82.8,300,64.7,304.8z"/>
	<path fill="#FF1F71" d="M617.9,582.5c-13.9,3.6-22.2,17.9-18.4,31.8c3.8,13.9,17.9,22,31.8,18.4c13.9-3.6,22.2-17.9,18.4-31.8
		C646.1,587,631.8,578.7,617.9,582.5z"/>
	<path fill="#FF1F71" d="M686.5,590.6c-7.4-28-33-47.6-61.9-47.6c-5.5,0-11.2,0.7-16.7,2.2c-16.5,4.5-30.3,15.3-39,30.1
		c-4.4,7.7-7.1,16.2-8.1,24.9h-74c-0.1-0.6-0.2-1.1-0.4-1.7c-2.1-8.1-7-14.6-13.4-19l128-501.8c2.6-0.2,5.3-0.6,7.9-1.3
		c20.8-5.5,33-26.8,27.5-47.6c-5.7-20.8-27-33-47.8-27.5c-19.6,5.4-31.5,24.6-28.3,44.2L114.2,278.8c-11.9-8.5-26.5-13.4-41.8-13.4
		c-6.2,0-12.7,1-18.9,2.6c-18.6,5-34.2,17-43.7,33.7c-9.8,16.7-12.2,36.3-7.2,55c8.6,31.5,37.3,53.5,69.8,53.5
		c6.5,0,12.9-1,18.9-2.6c7.1-1.9,13.6-4.8,19.5-8.5l309.9,201.1c-1.1,5.1-1,10.6,0.4,16c4.8,18.2,23.4,28.9,41.6,23.9
		c12.7-3.4,21.7-13.5,24.3-25.6h74c0.4,3.2,1,6.4,1.8,9.6c7.4,28,33,47.6,61.9,47.6c5.5,0,11.2-0.7,16.7-2.2
		C675.5,660.2,695.8,624.8,686.5,590.6z M449.9,573.7c-1.7,0.2-3.3,0.5-5,0.9c0,0,0,0,0,0l-89.1-174.2
		c17.8-12.5,26.7-35.2,20.7-57.4c-2.3-8.7-6.7-16.2-12.3-22.3L577.5,74.3L449.9,573.7z M353.3,311.7c-12.1-7.5-27.2-10.2-42-6.2
		c-20.7,5.6-35.1,22.5-38.6,42.2l-128.6-1.5c1.1-8.9,0.5-18.2-2-27.3c-2.2-8.1-5.8-15.6-10.4-22.3l428.6-224L353.3,311.7z
		 M141,360.5l131.2,1.5c0.3,2.9,0.8,5.8,1.6,8.7c7.6,28.2,37,45.2,65.2,37.5c1.4-0.4,2.7-0.8,4.1-1.3l87.6,171.3L129.1,382.5
		C134.3,376,138.3,368.5,141,360.5z M87.4,393.5c-4.8,1.2-10,1.9-15.1,1.9c-26,0-49-17.4-55.9-42.8c-4.1-14.8-1.9-30.6,5.7-44
		c7.6-13.4,20.1-22.9,35.1-27c5-1.2,10.3-1.9,15.3-1.9c26,0,49,17.7,55.7,42.5C136.6,353.1,118.2,385.1,87.4,393.5z M637.2,655.6
		c-4.3,1.2-8.8,1.7-13.1,1.7c-22.5,0-42.1-15.1-48-36.8c-1-3.8-1.5-7.6-1.6-11.4c0.1-0.5,0.2-1.1,0.2-1.7c0-0.6-0.1-1.2-0.2-1.7
		c0.3-8.1,2.5-16,6.7-23.1c6.7-11.7,17.4-19.8,30.3-23.4c4.3-1.2,8.8-1.7,13.1-1.7c22.5,0,42.3,15.3,47.8,37
		C679.5,621,663.8,648.4,637.2,655.6z"/>
</g>
</svg>
