<?xml version="1.0" encoding="utf-8"?>
<!-- Generator: Adobe Illustrator 19.2.1, SVG Export Plug-In . SVG Version: 6.00 Build 0)  -->
<svg version="1.1" id="Layer_1" xmlns="http://www.w3.org/2000/svg" xmlns:xlink="http://www.w3.org/1999/xlink" x="0px" y="0px"
	 viewBox="0 0 546.7 546.7" style="enable-background:new 0 0 546.7 546.7;" xml:space="preserve">
<style type="text/css">
	.st0{fill:none;}
	.st1{fill:#FF1F71;}
</style>
<g>
	<path class="st0" d="M273.4,41.8c-61.8,0-120,24.2-163.7,67.9S41.8,211.6,41.8,273.6h463.1c0-62-24.1-120.1-67.8-163.8
		C393.3,66,335.2,41.8,273.4,41.8z"/>
	<path class="st1" d="M109.6,109.8C153.4,66,211.5,41.9,273.4,41.9s120,24.2,163.7,67.9s67.8,101.8,67.8,163.8h41.8
		c0-73-28.4-141.8-80.1-193.4S346.4,0.1,273.4,0.1S131.7,28.6,80.1,80.2C28.4,131.9,0,200.6,0,273.6h41.8
		C41.8,211.6,65.9,153.5,109.6,109.8z"/>
	<path class="st0" d="M273.4,546.7c73,0,141.7-28.3,193.3-79.9s80.1-120.2,80.1-193.2H505c0,62-24.1,119.9-67.8,163.6
		c-43.9,43.7-102,67.8-163.8,67.8s-120-24-163.7-67.7S41.9,335.7,41.9,273.7H0c0,73,28.4,141.5,80.1,193.2
		C131.7,518.4,200.3,546.7,273.4,546.7z"/>
</g>
</svg>
