<?xml version="1.0" encoding="utf-8"?>
<!-- Generator: Adobe Illustrator 19.2.1, SVG Export Plug-In . SVG Version: 6.00 Build 0)  -->
<svg version="1.1" id="Layer_1" xmlns="http://www.w3.org/2000/svg" xmlns:xlink="http://www.w3.org/1999/xlink" x="0px" y="0px"
	 viewBox="0 0 214.5 98" style="enable-background:new 0 0 214.5 98;" xml:space="preserve">
<style type="text/css">
	.st0{fill:#D6121C;}
</style>
<g>
	<path class="st0" d="M39.6,30.2v31.2h19.5V68H32.5V30.2H39.6z"/>
	<path class="st0" d="M100.2,49.3c-0.1,9.8-6.1,19.6-19.4,19.6s-19.5-9.6-19.5-19.5s6.4-19.9,19.5-19.9
		C93.8,29.4,100.3,39.4,100.2,49.3z M68.3,49.5c0.2,6.2,3.5,12.9,12.4,12.9S93,55.6,93.1,49.4c0.1-6.4-3.5-13.5-12.4-13.5
		S68.2,43.1,68.3,49.5z"/>
	<path class="st0" d="M133.5,39.4c-2.5-2.4-6.3-3.8-9.6-3.8c-8.1,0-13,6.2-13,13.9c0,6.2,3.6,12.7,13,12.7c3,0,5.6-0.6,8.5-3v-6.7
		h-9.7v-6.4H139v15.9c-3.7,4.3-8.4,6.8-15.1,6.8c-14.2,0-20-9.4-20-19.3c0-10.6,6.6-20.5,20-20.5c5.1,0,10.2,1.9,14.1,5.8
		L133.5,39.4z"/>
	<path class="st0" d="M182,49.3c-0.1,9.8-6.1,19.6-19.4,19.6s-19.5-9.6-19.5-19.5s6.4-19.9,19.5-19.9
		C175.6,29.4,182.1,39.4,182,49.3z M150.2,49.5c0.2,6.2,3.5,12.9,12.4,12.9s12.3-6.7,12.4-12.9c0.1-6.4-3.5-13.5-12.4-13.5
		S150,43.1,150.2,49.5z"/>
</g>
</svg>
