<?xml version="1.0" encoding="utf-8"?>
<!-- Generator: Adobe Illustrator 18.1.1, SVG Export Plug-In . SVG Version: 6.00 Build 0)  -->
<svg version="1.1" id="Layer_1" xmlns="http://www.w3.org/2000/svg" xmlns:xlink="http://www.w3.org/1999/xlink" x="0px" y="0px"
	 viewBox="-34.5 528.1 611.9 253.5" enable-background="new -34.5 528.1 611.9 253.5" xml:space="preserve">
<g>
	<g>
		<path fill="#FFFFFF" d="M360,733.5c0.2-0.7,0.6-1.5,1-2.1c0.5-0.6,1-1.2,1.6-1.7c0.6-0.5,1.3-0.9,2-1.2c0.7-0.3,1.5-0.5,2.2-0.5
			h13.8l1.5-5.6h-17.4l1.5-5.3h17.4c0.7,0,1.4,0.2,2,0.5c0.6,0.3,1,0.6,1.4,1.1c0.4,0.5,0.6,1,0.6,1.7c0.1,0.6,0.1,1.4-0.2,2.1
			l-6.3,23.6h-5.3l1.3-4.9c-0.3,0.6-0.6,1.3-1,1.9c-0.5,0.6-1,1.1-1.6,1.6c-0.6,0.5-1.3,0.8-1.9,1c-0.6,0.3-1.4,0.4-2,0.4h-8.4
			c-0.7,0-1.4-0.2-1.9-0.5c-0.6-0.3-1-0.6-1.4-1.1s-0.6-1-0.6-1.7c-0.1-0.6-0.1-1.4,0.2-2.1L360,733.5z M363.4,740.8h13.8l1.9-7.3
			h-13.8L363.4,740.8z"/>
		<path fill="#FFFFFF" d="M396.9,722.6l-4.9,18.3h13.8l1.3-4.9h5.3l-1.3,4.9c-0.2,0.7-0.6,1.5-1,2.1c-0.5,0.6-1,1.2-1.6,1.7
			c-0.6,0.5-1.3,0.8-2,1.1c-0.7,0.3-1.5,0.5-2.2,0.5h-13.8c-0.7,0-1.4-0.2-1.9-0.5c-0.6-0.3-1-0.6-1.4-1.1c-0.4-0.5-0.6-1-0.6-1.7
			c-0.1-0.6-0.1-1.4,0.2-2.1l4.9-18.3c0.2-0.7,0.6-1.5,1-2.1c0.5-0.6,1-1.2,1.6-1.7c0.6-0.5,1.3-0.8,2-1.1s1.5-0.5,2.2-0.5h13.8
			c0.7,0,1.4,0.2,2,0.5c0.6,0.3,1,0.6,1.4,1.1c0.4,0.5,0.6,1,0.6,1.7c0.1,0.6,0.1,1.4-0.2,2.1l-1.3,4.9h-5.3l1.3-4.9H396.9z"/>
		<path fill="#FFFFFF" d="M417.1,733.5c0.2-0.7,0.6-1.5,1-2.1c0.5-0.6,1-1.2,1.6-1.7c0.6-0.5,1.3-0.9,2-1.2c0.7-0.3,1.5-0.5,2.2-0.5
			h13.8l1.5-5.6h-17.4l1.5-5.3h17.4c0.7,0,1.4,0.2,2,0.5c0.6,0.3,1,0.6,1.4,1.1c0.4,0.5,0.6,1,0.6,1.7c0.1,0.6,0.1,1.4-0.2,2.1
			l-6.3,23.6h-5.3l1.3-4.9c-0.3,0.6-0.6,1.3-1,1.9c-0.5,0.6-1,1.1-1.6,1.6c-0.6,0.5-1.3,0.8-1.9,1c-0.6,0.3-1.4,0.4-2,0.4h-8.4
			c-0.7,0-1.4-0.2-1.9-0.5s-1-0.6-1.4-1.1s-0.6-1-0.6-1.7c-0.1-0.6-0.1-1.4,0.2-2.1L417.1,733.5z M420.5,740.8h13.8l1.9-7.3h-13.8
			L420.5,740.8z"/>
		<path fill="#FFFFFF" d="M448.6,722.6c0.2-0.7,0.6-1.5,1-2.1c0.5-0.6,1-1.2,1.6-1.7c0.6-0.5,1.3-0.8,2-1.1s1.5-0.5,2.2-0.5h14.9
			l3-11.1h5.3l-10.7,40.1h-5.3l1.3-4.9c-0.3,0.6-0.6,1.3-1,1.9c-0.5,0.6-1,1.1-1.6,1.6c-0.6,0.5-1.3,0.8-1.9,1
			c-0.6,0.3-1.4,0.4-2,0.4h-9.6c-0.7,0-1.4-0.2-1.9-0.5c-0.6-0.3-1-0.6-1.4-1.1c-0.4-0.5-0.6-1-0.6-1.7c-0.1-0.6-0.1-1.4,0.2-2.1
			L448.6,722.6z M448.9,740.8h14.9l4.9-18.3h-14.9L448.9,740.8z"/>
		<path fill="#FFFFFF" d="M499.4,734.4h-19.2l-1.7,6.4h19.2l-1.5,5.3H477c-0.7,0-1.4-0.2-1.9-0.5c-0.6-0.3-1-0.6-1.4-1.1
			c-0.4-0.5-0.6-1-0.6-1.7c-0.1-0.6-0.1-1.4,0.2-2.1l4.9-18.3c0.2-0.7,0.6-1.5,1-2.1c0.5-0.6,1-1.2,1.6-1.7c0.6-0.5,1.3-0.8,2-1.1
			s1.5-0.5,2.2-0.5h13.8c0.7,0,1.4,0.2,2,0.5c0.6,0.3,1,0.6,1.4,1.1c0.4,0.5,0.6,1,0.6,1.7c0.1,0.6,0.1,1.4-0.2,2.1L499.4,734.4z
			 M483.5,722.6l-1.7,6.5h13.8l1.7-6.5H483.5z"/>
		<path fill="#FFFFFF" d="M529.6,722.6l-6.3,23.6h-5.3l6.3-23.6h-12.3l-6.3,23.6h-5.3l7.7-28.9h5.3l-1.4,5.1c0.2-0.7,0.6-1.4,1-2
			c0.5-0.6,1-1.2,1.6-1.7c0.6-0.5,1.3-0.8,1.9-1.1s1.4-0.4,2.1-0.4h6.9c0.7,0,1.4,0.1,1.9,0.4c0.6,0.3,1,0.6,1.4,1.1
			c0.4,0.5,0.6,1,0.7,1.7c0.1,0.6,0.1,1.3-0.1,2c0.2-0.7,0.6-1.4,1-2c0.5-0.6,1-1.2,1.6-1.7c0.6-0.5,1.3-0.8,1.9-1.1
			s1.4-0.4,2.1-0.4h6.9c0.7,0,1.4,0.2,2,0.5c0.6,0.3,1,0.6,1.4,1.1s0.6,1,0.6,1.7c0.1,0.6,0.1,1.4-0.2,2.1l-6.3,23.6h-5.3l6.3-23.6
			L529.6,722.6L529.6,722.6z"/>
		<path fill="#FFFFFF" d="M543.7,757.8l9.9-14.3l-4.3-26.4h5.6l3.1,19.9l13.8-19.9h5.6L549,757.8H543.7z"/>
	</g>
	<g>
		<path fill="#FFFFFF" d="M257.8,615.1h-10.5l19.7-73.4h10.5l28.8,56.9l15.2-56.9H332l-19.7,73.4h-10.5l-28.8-56.9L257.8,615.1z"/>
		<path fill="#FFFFFF" d="M335.6,560.6h10L333.7,605h28.1l11.9-44.4h10.1l-14.7,54.6H359l2.5-9.2c-0.5,1.3-1.1,2.5-2,3.6
			c-0.9,1.1-1.9,2.1-3,2.9c-1.1,0.8-2.3,1.5-3.6,1.9c-1.3,0.5-2.6,0.7-3.9,0.7h-18.1c-1.4,0-2.6-0.3-3.7-0.8s-1.9-1.3-2.7-2.1
			c-0.6-0.9-1.1-1.9-1.3-3.2c-0.2-1.2-0.1-2.6,0.3-3.9L335.6,560.6z"/>
		<path fill="#FFFFFF" d="M407,539.6l-20.2,75.5h-10l20.2-75.5H407L407,539.6z"/>
		<path fill="#FFFFFF" d="M424.6,539.6l-20.2,75.5h-10l20.2-75.5H424.6L424.6,539.6z"/>
		<path fill="#FFFFFF" d="M289.6,692c-0.4,1.5-1,2.8-1.9,4s-1.9,2.4-3.1,3.4c-1.2,0.9-2.6,1.7-3.9,2.3c-1.4,0.6-2.8,0.8-4.3,0.8h-38
			l-8.9,10.5h-8.3l9.4-11.2c-0.8-0.4-1.6-0.9-2.1-1.6c-0.6-0.6-1.1-1.4-1.4-2.3c-0.4-0.8-0.6-1.7-0.6-2.8c-0.1-1,0.1-2,0.4-3.1
			l14.1-52.4c0.4-1.5,1-2.8,1.9-4c0.9-1.3,1.9-2.4,3.1-3.3c1.2-0.9,2.6-1.7,3.9-2.3c1.5-0.6,2.8-0.8,4.3-0.8h37.7l8.8-10.5h8.8
			l-9.6,11.3c0.8,0.4,1.6,0.9,2.2,1.6s1.1,1.4,1.5,2.2s0.6,1.7,0.6,2.8c0.1,1-0.1,2-0.4,3.1L289.6,692z M237.2,692h1.5l44.1-52.4
			h-31.6L237.2,692z M291.5,639.6l-44.4,52.4h32l14.1-52.4H291.5z"/>
		<path fill="#FFFFFF" d="M346.3,692.5c-0.4,1.4-1,2.8-1.8,3.9s-1.8,2.3-3,3.2c-1.1,0.9-2.4,1.7-3.8,2.1c-1.4,0.6-2.8,0.8-4.1,0.8
			h-28.1c-1.4,0-2.6-0.3-3.7-0.8c-1.1-0.6-1.9-1.3-2.7-2.1c-0.6-0.9-1.1-1.9-1.3-3.2c-0.2-1.2-0.1-2.6,0.3-3.9l17.5-65.4h10
			l-8.2,30.6c0.5-1.3,1.1-2.6,1.9-3.8c0.8-1.2,1.8-2.2,3-3c1.1-0.8,2.4-1.6,3.7-2c1.3-0.5,2.7-0.7,4-0.7h18c1.4,0,2.7,0.3,3.8,0.8
			s1.9,1.3,2.7,2.1c0.6,0.9,1.1,1.9,1.3,3.2c0.2,1.2,0.1,2.6-0.3,3.9L346.3,692.5z M317.2,658.1l-9.2,34.3h28.1l9.2-34.3H317.2z"/>
		<path fill="#FFFFFF" d="M348.5,714.4l17.8-66.4h10.1l-17.8,66.4c-0.4,1.4-1,2.8-1.8,3.9c-0.8,1.2-1.8,2.3-3,3.2
			c-1.2,0.9-2.4,1.7-3.8,2.1c-1.4,0.6-2.8,0.8-4.1,0.8h-7.9l2.7-10.1H348.5L348.5,714.4z M371.3,627.1h11.1l-2.8,10.5h-11.1
			L371.3,627.1z"/>
		<path fill="#FFFFFF" d="M421.8,680.4h-36.1l-3.2,12h36.1l-2.7,10.1h-36.1c-1.4,0-2.6-0.3-3.7-0.8s-1.9-1.3-2.7-2.1
			c-0.7-0.8-1.1-1.9-1.3-3.2c-0.2-1.2-0.1-2.6,0.3-3.9l9.2-34.3c0.4-1.4,1-2.8,1.8-3.9c0.8-1.2,1.8-2.3,3-3.2
			c1.1-0.9,2.4-1.7,3.8-2.1c1.4-0.6,2.8-0.8,4.1-0.8h26c1.4,0,2.7,0.3,3.8,0.8s1.9,1.3,2.7,2.1c0.6,0.9,1.1,1.9,1.3,3.2
			c0.2,1.3,0.1,2.6-0.3,3.9L421.8,680.4z M391.7,658.1l-3.3,12.2h26l3.3-12.2H391.7z"/>
		<path fill="#FFFFFF" d="M445.3,658.1l-9.2,34.3h26l2.5-9.2h10.1l-2.5,9.2c-0.4,1.4-1,2.8-1.8,3.9c-0.8,1.2-1.8,2.3-3,3.2
			c-1.1,0.9-2.4,1.7-3.8,2.1c-1.4,0.6-2.8,0.8-4.1,0.8h-26c-1.4,0-2.6-0.3-3.7-0.8c-1.1-0.6-1.9-1.3-2.7-2.1
			c-0.7-0.8-1.1-1.9-1.3-3.2c-0.2-1.2-0.1-2.6,0.3-3.9l9.2-34.3c0.4-1.4,1-2.8,1.8-3.9c0.8-1.2,1.8-2.3,3-3.2
			c1.1-0.9,2.4-1.7,3.8-2.1c1.4-0.6,2.8-0.8,4.1-0.8h26c1.4,0,2.7,0.3,3.8,0.8c1.1,0.6,1.9,1.3,2.7,2.1c0.6,0.9,1.1,1.9,1.3,3.2
			s0.1,2.6-0.3,3.9l-2.5,9.2h-10.1l2.5-9.2H445.3z"/>
		<path fill="#FFFFFF" d="M488.5,648h13.3l4.5-16.8h10.1l-4.5,16.8h17.9l-2.7,10.1h-17.9l-9.2,34.3h17.8l-2.7,10.1h-17.9
			c-1.4,0-2.6-0.3-3.7-0.8s-1.9-1.3-2.7-2.1c-0.6-0.9-1.1-1.9-1.3-3.2c-0.2-1.2-0.1-2.6,0.3-3.9l9.2-34.3h-13.3L488.5,648z"/>
	</g>
	<g>
		<g>
			<path fill="#FFFFFF" d="M182.4,750.1c5.1,5,13.3,4.8,18.3-0.4c5-5.1,4.8-13.3-0.4-18.3c-5.1-5-13.3-4.8-18.3,0.4
				C177.1,737,177.3,745.2,182.4,750.1z"/>
		</g>
		<g>
			<path fill="#FFFFFF" d="M191.3,771.9L191.3,771.9c-8.1,0-15.7-3.1-21.6-8.6c-6-5.8-9.4-13.5-9.6-21.8s2.9-16.2,8.6-22.2
				c6-6.2,13.9-9.6,22.5-9.6c8.1,0,15.7,3,21.6,8.6c12.4,11.8,12.8,31.6,0.9,44C207.9,768.5,199.9,771.9,191.3,771.9z M191.3,715.2
				c-7.1,0-13.6,2.8-18.5,7.9c-4.8,5-7.3,11.4-7.2,18.3c0.2,6.8,2.9,13.2,7.9,17.9c4.8,4.6,11.1,7.2,17.7,7.2
				c7.1,0,13.6-2.8,18.5-7.9c9.7-10.2,9.5-26.4-0.7-36.2C204.3,717.7,197.9,715.2,191.3,715.2z"/>
		</g>
		<g>
			<path fill="#FFFFFF" d="M10.6,593.8L10.6,593.8c-6.9,0-13.4-2.6-18.3-7.3c-10.6-10.1-10.8-26.9-0.7-37.4
				c5.1-5.2,11.8-8.2,19.1-8.2c6.9,0,13.3,2.6,18.3,7.3c5.1,4.9,8,11.5,8.2,18.6c0.2,7.1-2.5,13.8-7.3,18.8
				C24.6,591,17.9,593.8,10.6,593.8z M10.6,546.4c-5.8,0-11.1,2.3-15.2,6.4c-8,8.4-7.7,21.6,0.6,29.6c3.9,3.8,9.1,5.8,14.5,5.8l0,0
				c5.8,0,11.1-2.3,15.2-6.4c3.9-4,6-9.4,5.8-15c-0.1-5.6-2.4-10.8-6.4-14.7C21.2,548.5,16.1,546.4,10.6,546.4z"/>
		</g>
		<g>
			<path fill="#FFFFFF" d="M107.7,647.2c3.9,3.9,4.1,10.1,0.3,14.1c-3.9,3.9-10.1,4.1-14.1,0.3c-3.9-3.9-4.1-10.1-0.3-14.1
				C97.3,643.5,103.6,643.3,107.7,647.2z"/>
		</g>
		<g>
			<path fill="#FFFFFF" d="M100.7,680.9c-6.9,0-13.4-2.7-18.4-7.3c-5.1-4.9-8-11.5-8.2-18.6c-0.2-7.1,2.5-13.8,7.3-18.9
				c5.1-5.2,11.8-8.2,19.1-8.2c6.9,0,13.4,2.7,18.4,7.3c10.6,10.1,10.9,26.9,0.7,37.5C114.8,677.9,108,680.9,100.7,680.9z
				 M100.7,633.4c-5.8,0-11.1,2.3-15.2,6.4c-3.9,4-6,9.4-5.9,15c0.1,5.6,2.4,10.8,6.4,14.7c3.9,3.8,9.1,5.9,14.5,5.9
				c5.8,0,11.1-2.3,15.2-6.4c8-8.4,7.7-21.7-0.6-29.7C111.3,635.4,106.2,633.4,100.7,633.4z"/>
		</g>
		<g>
			<path fill="#FFFFFF" d="M-30.6,697.8c5.1,5,13.3,4.8,18.3-0.4c5-5.1,4.8-13.3-0.4-18.3s-13.3-4.8-18.3,0.4
				S-35.7,692.8-30.6,697.8z"/>
		</g>
		<g>
			<path fill="#FFFFFF" d="M211,628.6c5.1,5,13.3,4.8,18.3-0.4c5-5.1,4.8-13.3-0.4-18.3c-5.1-5-13.3-4.8-18.3,0.4
				C205.7,615.5,205.8,623.7,211,628.6z"/>
		</g>
		<g>
			<path fill="#FFFFFF" d="M1.7,576.7c5.1,5,13.3,4.8,18.3-0.4c5-5.1,4.8-13.3-0.4-18.3s-13.3-4.8-18.3,0.4
				C-3.6,563.6-3.5,571.8,1.7,576.7z"/>
		</g>
		<g>
			<polygon fill="#FFFFFF" points="69.1,781.5 -23.1,693 -16.8,686.4 71.7,771.2 186.8,737.8 215.5,621.4 129,538.4 33.9,565.9 
				31.3,557.1 131.4,528.1 225.7,618.4 194.4,745.2 			"/>
		</g>
		<g>
			<path fill="#FFFFFF" d="M79.8,740.7c-0.7,0-1.4-0.3-1.9-0.7l-61.7-59.2c-0.7-0.6-1-1.7-0.7-2.7l20.5-83.1c0.3-0.9,0.9-1.7,1.9-2
				l82.2-23.9c0.9-0.3,1.9,0,2.7,0.6l61.7,59.2c0.7,0.6,1,1.7,0.7,2.7l-20.5,83.1c-0.3,0.9-0.9,1.7-1.9,2l-82.2,23.9
				C80.4,740.7,80.1,740.7,79.8,740.7z M21.2,677.8l59.4,57l79.2-23l19.7-80l-59.4-57l-79.2,23L21.2,677.8z"/>
		</g>
		<g>
			<path fill="#FFFFFF" d="M190.7,744.2c-0.7,0-1.4-0.3-1.9-0.7l-28.6-27.5c-0.7-0.6-1-1.7-0.7-2.7l20.4-83.1c0.3-0.9,0.9-1.7,1.9-2
				l38.1-11c0.9-0.3,1.9,0,2.7,0.6c0.7,0.6,1,1.7,0.7,2.7l-29.9,121.6c-0.3,0.9-0.9,1.7-1.9,2C191.1,744.2,190.9,744.2,190.7,744.2z
				 M165.1,713.2l24,23.1l27.6-112.3l-32,9.3L165.1,713.2z"/>
		</g>
		<g>
			<path fill="#FFFFFF" d="M70.4,779.1c-0.7,0-1.4-0.3-1.9-0.7c-0.7-0.6-1-1.7-0.7-2.7l9.5-38.5c0.3-0.9,0.9-1.7,1.9-2l82.2-23.9
				c0.9-0.3,1.9,0,2.7,0.6l28.6,27.5c0.7,0.6,1,1.7,0.7,2.7c-0.3,1-0.9,1.7-1.9,2L71.1,779.1C70.9,779.1,70.7,779.1,70.4,779.1z
				 M82.1,740.1l-8,32.3l111.1-32.2l-24-23.1L82.1,740.1z"/>
		</g>
		<g>
			<path fill="#FFFFFF" d="M-20,692.5c-1.2,0-2.3-0.8-2.7-2c-0.5-1.5,0.5-3,1.8-3.4l36.6-10.6l19.7-80L25,586.6
				c-1.1-1-1.1-2.8-0.1-3.9s2.8-1.1,3.9-0.1l11.5,11c0.7,0.6,1,1.7,0.7,2.7l-20.5,83.1c-0.3,0.9-0.9,1.7-1.9,2l-38.1,11
				C-19.4,692.5-19.7,692.5-20,692.5z"/>
		</g>
		<g>
			<path fill="#FFFFFF" d="M4.5,590.3"/>
		</g>
		<g>
			
				<rect x="-12.4" y="588.8" transform="matrix(-0.9711 -0.2387 0.2387 -0.9711 -168.0852 1259.5625)" fill="#FFFFFF" width="9.2" height="102.4"/>
		</g>
		<g>
			<path fill="#FFFFFF" d="M38.5,598.3c-0.7,0-1.4-0.3-1.9-0.7l-11.5-11l3.9-3.9l10.4,9.9l79.2-23l8-32.3l-92.2,26.6l-1.6-5.3
				l96.7-28c0.9-0.3,1.9,0,2.7,0.6c0.7,0.6,1,1.7,0.7,2.7l-9.5,38.5c-0.3,0.9-0.9,1.7-1.9,2l-82.2,23.9
				C39.1,598.3,38.8,598.3,38.5,598.3z"/>
		</g>
		<g>
			
				<rect x="109" y="689.7" transform="matrix(-0.7149 -0.6992 0.6992 -0.7149 -244.1963 1285.3107)" fill="#FFFFFF" width="61.8" height="5.5"/>
		</g>
		<g>
			<path fill="#FFFFFF" d="M-20,682.7"/>
		</g>
	</g>
</g>
</svg>
