<?xml version="1.0" encoding="utf-8"?>
<!-- Generator: Adobe Illustrator 18.1.1, SVG Export Plug-In . SVG Version: 6.00 Build 0)  -->
<svg version="1.1" id="Layer_1" xmlns="http://www.w3.org/2000/svg" xmlns:xlink="http://www.w3.org/1999/xlink" x="0px" y="0px"
	 viewBox="30.1 294.1 552.1 281.1" enable-background="new 30.1 294.1 552.1 281.1" xml:space="preserve">
<symbol  id="circle10" viewBox="-205 -205 410 410">
	<g id="CircleOut_x5F_10_1_" opacity="0">
		<path opacity="0.5" fill="none" stroke="#FF1F71" stroke-width="24" stroke-miterlimit="10" enable-background="new    " d="
			M0,193c106.6,0,193-86.4,193-193S106.6-193,0-193S-193-106.6-193,0S-106.6,193,0,193z"/>
	</g>
	<path fill="#FF1F71" d="M0,205v-15v-9c99.8,0,181-81.2,181-181c0-13.8-1.6-27.3-4.5-40.2c-16-70.2-72.9-125-144.3-137.9l1.6-8.8
		c75,13.5,134.7,71,151.4,144.7l14.6-3.3C203.3-30.9,205-15.7,205,0C205,113.1,113.1,205,0,205z"/>
	<path fill="#FF1F71" d="M-181,0c0,13.8,1.6,27.3,4.5,40.2l-8.8,2l-14.6,3.3C-203.3,30.9-205,15.7-205,0c0-113.1,92-205,205-205v15
		v9C-99.8-181-181-99.8-181,0z"/>
</symbol>
<symbol  id="circle10_x5F_lines_x5F_big" viewBox="-194.4 -197.9 388.8 395.8">
	<g opacity="0">
		<path fill="none" stroke="#000000" stroke-miterlimit="10" d="M3.5,190.4c105.2,0,190.4-85.3,190.4-190.4S108.7-190.4,3.5-190.4
			S-186.9-105.2-186.9,0S-101.7,190.4,3.5,190.4z"/>
	</g>
	<g>
		<g>
			<path fill="#FF1F71" d="M3.5-197.9H2.6l0.1,15h0.8h0.7l0.1-15H3.5z M-1.5-197.9H-3l0.5,15H-1L-1.5-197.9z M-7.2-197.7
				c-0.5,0-1,0.1-1.6,0.1l0.9,15c0.5,0,1-0.1,1.4-0.1L-7.2-197.7z M-12.9-197.3l-1.5,0.1l1.3,14.9l1.4-0.1L-12.9-197.3z
				 M-18.5-196.7c-0.5,0.1-1,0.1-1.6,0.2l1.8,14.9c0.5-0.1,0.9-0.1,1.4-0.2L-18.5-196.7z M-24.2-196l-1.5,0.2l2.2,14.8l1.4-0.2
				L-24.2-196z M-29.8-195.2c-0.5,0.1-1,0.2-1.5,0.3l2.6,14.8c0.5-0.1,0.9-0.2,1.4-0.2L-29.8-195.2z M-35.4-194.1
				c-0.5,0.1-1,0.2-1.5,0.3l3.1,14.7c0.5-0.1,0.9-0.2,1.4-0.3L-35.4-194.1z M-41-192.9c-0.5,0.1-1,0.2-1.5,0.4l3.5,14.6
				c0.5-0.1,0.9-0.2,1.4-0.3L-41-192.9z M-46.5-191.6c-0.5,0.1-1,0.3-1.5,0.4l3.9,14.5l1.4-0.4L-46.5-191.6z M-52-190
				c-0.5,0.1-1,0.3-1.5,0.4l4.3,14.4c0.5-0.1,0.9-0.3,1.4-0.4L-52-190z M-57.5-188.4c-0.5,0.2-1,0.3-1.5,0.5l4.7,14.2
				c0.5-0.2,0.9-0.3,1.4-0.4L-57.5-188.4z M-62.9-186.5c-0.5,0.2-1,0.4-1.5,0.5l5.1,14.1c0.5-0.2,0.9-0.3,1.4-0.5L-62.9-186.5z
				 M-68.3-184.5l-1.4,0.6l5.5,13.9l1.4-0.5L-68.3-184.5z M-73.6-182.4c-0.5,0.2-1,0.4-1.4,0.6l6,13.8c0.4-0.2,0.9-0.4,1.3-0.6
				L-73.6-182.4z M-78.8-180.1c-0.5,0.2-0.9,0.4-1.4,0.6l6.3,13.6l1.3-0.6L-78.8-180.1z M-84-177.6c-0.5,0.2-0.9,0.5-1.4,0.7
				l6.7,13.4c0.4-0.2,0.9-0.4,1.3-0.6L-84-177.6z M-89-175c-0.5,0.2-0.9,0.5-1.4,0.7l7.1,13.2l1.3-0.7L-89-175z M-94-172.3
				c-0.5,0.3-0.9,0.5-1.4,0.8l7.5,13c0.4-0.2,0.8-0.5,1.2-0.7L-94-172.3z M-99-169.4c-0.4,0.3-0.9,0.5-1.3,0.8l7.9,12.8
				c0.4-0.3,0.8-0.5,1.2-0.8L-99-169.4z M-103.8-166.4c-0.4,0.3-0.9,0.6-1.3,0.9l8.3,12.5c0.4-0.3,0.8-0.5,1.2-0.8L-103.8-166.4z
				 M-108.6-163.2c-0.4,0.3-0.9,0.6-1.3,0.9l8.6,12.3c0.4-0.3,0.8-0.6,1.2-0.8L-108.6-163.2z M-113.2-159.9
				c-0.4,0.3-0.8,0.6-1.3,0.9l9,12c0.4-0.3,0.8-0.6,1.2-0.9L-113.2-159.9z M-117.8-156.5c-0.4,0.3-0.8,0.6-1.2,1l9.3,11.8
				c0.4-0.3,0.7-0.6,1.1-0.9L-117.8-156.5z M-122.2-152.9c-0.4,0.3-0.8,0.7-1.2,1l9.6,11.5c0.4-0.3,0.7-0.6,1.1-0.9L-122.2-152.9z
				 M-126.6-149.2c-0.4,0.3-0.8,0.7-1.2,1l9.9,11.2l1.1-1L-126.6-149.2z M-130.8-145.4c-0.4,0.4-0.8,0.7-1.1,1.1l10.3,10.9
				c0.3-0.3,0.7-0.7,1-1L-130.8-145.4z M-134.9-141.5c-0.4,0.4-0.7,0.7-1.1,1.1l10.6,10.6c0.3-0.3,0.7-0.7,1-1L-134.9-141.5z
				 M-139-137.4c-0.4,0.4-0.7,0.7-1.1,1.1l10.9,10.3c0.3-0.3,0.7-0.7,1-1L-139-137.4z M-142.8-133.3c-0.3,0.4-0.7,0.8-1,1.2l11.2,10
				c0.3-0.4,0.6-0.7,1-1.1L-142.8-133.3z M-146.6-129c-0.3,0.4-0.7,0.8-1,1.2l11.4,9.7c0.3-0.4,0.6-0.7,0.9-1.1L-146.6-129z
				 M-150.3-124.7c-0.3,0.4-0.7,0.8-1,1.2l11.7,9.4c0.3-0.4,0.6-0.7,0.9-1.1L-150.3-124.7z M-153.8-120.2l-0.9,1.2l12,9l0.9-1.2
				L-153.8-120.2z M-157.2-115.6c-0.3,0.4-0.6,0.8-0.9,1.3l12.2,8.7c0.3-0.4,0.6-0.8,0.8-1.2L-157.2-115.6z M-160.4-110.9
				c-0.3,0.4-0.6,0.9-0.9,1.3l12.5,8.3c0.3-0.4,0.5-0.8,0.8-1.2L-160.4-110.9z M-163.6-106.2c-0.3,0.4-0.6,0.9-0.8,1.3l12.7,8
				c0.3-0.4,0.5-0.8,0.8-1.2L-163.6-106.2z M-166.6-101.4c-0.3,0.4-0.5,0.9-0.8,1.3l12.9,7.6c0.2-0.4,0.5-0.8,0.7-1.2L-166.6-101.4z
				 M-169.4-96.4c-0.3,0.5-0.5,0.9-0.8,1.4l13.2,7.2c0.2-0.4,0.5-0.8,0.7-1.3L-169.4-96.4z M-172.1-91.4c-0.2,0.5-0.5,0.9-0.7,1.4
				l13.4,6.8c0.2-0.4,0.4-0.8,0.7-1.3L-172.1-91.4z M-174.7-86.4c-0.2,0.5-0.4,0.9-0.7,1.4l13.5,6.4c0.2-0.4,0.4-0.9,0.6-1.3
				L-174.7-86.4z M-177.1-81.2c-0.2,0.5-0.4,0.9-0.6,1.4l13.7,6c0.2-0.4,0.4-0.9,0.6-1.3L-177.1-81.2z M-179.3-76
				c-0.2,0.5-0.4,1-0.6,1.4l13.9,5.7c0.2-0.4,0.4-0.9,0.5-1.3L-179.3-76z M-181.4-70.7c-0.2,0.5-0.4,1-0.5,1.5l14.1,5.2
				c0.2-0.4,0.3-0.9,0.5-1.3L-181.4-70.7z M-183.4-65.4c-0.2,0.5-0.3,1-0.5,1.5l14.2,4.8c0.2-0.5,0.3-0.9,0.5-1.4L-183.4-65.4z
				 M-185.2-60c-0.2,0.5-0.3,1-0.5,1.5l14.3,4.4c0.1-0.5,0.3-0.9,0.4-1.4L-185.2-60z M-186.8-54.5c-0.1,0.5-0.3,1-0.4,1.5l14.5,4
				c0.1-0.5,0.3-0.9,0.4-1.4L-186.8-54.5z M-188.3-49c-0.1,0.5-0.3,1-0.4,1.5l14.6,3.6c0.1-0.5,0.2-0.9,0.3-1.4L-188.3-49z
				 M-189.7-43.4c-0.1,0.5-0.2,1-0.3,1.5l14.7,3.2c0.1-0.5,0.2-0.9,0.3-1.4L-189.7-43.4z M-190.8-37.9c-0.1,0.5-0.2,1-0.3,1.5
				l14.7,2.7c0.1-0.5,0.2-0.9,0.3-1.4L-190.8-37.9z M-191.8-32.3c-0.1,0.5-0.2,1-0.2,1.5l14.8,2.3c0.1-0.5,0.1-0.9,0.2-1.4
				L-191.8-32.3z M-192.7-26.6c-0.1,0.5-0.1,1-0.2,1.5l14.9,1.9c0.1-0.5,0.1-0.9,0.2-1.4L-192.7-26.6z M-193.3-21
				c-0.1,0.5-0.1,1-0.2,1.5l14.9,1.5c0-0.5,0.1-1,0.1-1.4L-193.3-21z M-193.9-15.3c0,0.5-0.1,1-0.1,1.6l15,1c0-0.5,0.1-1,0.1-1.4
				L-193.9-15.3z M-194.2-9.6c0,0.5,0,1-0.1,1.6l15,0.6c0-0.5,0-1,0.1-1.4L-194.2-9.6z M-194.4-3.9c0,0.5,0,1,0,1.6l15,0.2
				c0-0.5,0-1,0-1.4L-194.4-3.9z M-179.4,1.6l-15,0.1c0,0.5,0,1,0,1.6l15-0.2C-179.4,2.6-179.4,2.1-179.4,1.6z M-179.3,6.9l-15,0.6
				c0,0.5,0,1,0.1,1.6l15-0.7C-179.3,7.9-179.3,7.4-179.3,6.9z M-179,12.2l-15,1c0,0.5,0.1,1,0.1,1.6l15-1.1
				C-179,13.1-179,12.7-179,12.2z M-178.6,17.4l-14.9,1.4c0,0.5,0.1,1,0.2,1.5l14.9-1.5C-178.5,18.4-178.6,17.9-178.6,17.4z
				 M-178.1,22.7l-14.9,1.8c0.1,0.5,0.1,1,0.2,1.6l14.9-2C-177.9,23.6-178,23.1-178.1,22.7z M-177.3,27.9l-14.8,2.3
				c0.1,0.5,0.2,1,0.2,1.5l14.8-2.4C-177.2,28.8-177.3,28.4-177.3,27.9z M-176.5,33.1l-14.8,2.7c0.1,0.5,0.2,1,0.3,1.5l14.7-2.8
				C-176.3,34-176.4,33.5-176.5,33.1z M-175.4,38.2l-14.7,3.1c0.1,0.5,0.2,1,0.3,1.5l14.6-3.2C-175.2,39.2-175.3,38.7-175.4,38.2z
				 M-174.3,43.4l-14.6,3.5c0.1,0.5,0.2,1,0.4,1.5l14.5-3.7C-174,44.3-174.2,43.8-174.3,43.4z M-173,48.5l-14.5,4
				c0.1,0.5,0.3,1,0.4,1.5l14.4-4.1C-172.7,49.4-172.8,48.9-173,48.5z M-171.5,53.5l-14.3,4.4c0.2,0.5,0.3,1,0.5,1.5l14.3-4.5
				L-171.5,53.5z M-169.9,58.6l-14.2,4.8c0.2,0.5,0.3,1,0.5,1.5l14.2-4.9C-169.6,59.5-169.7,59-169.9,58.6z M-168.1,63.5l-14.1,5.2
				c0.2,0.5,0.4,1,0.5,1.5l14-5.3C-167.8,64.5-167.9,64-168.1,63.5z M-166.2,68.5l-13.9,5.6c0.2,0.5,0.4,1,0.6,1.4l13.9-5.7
				C-165.8,69.4-166,68.9-166.2,68.5z M-164.2,73.3l-13.7,6c0.2,0.5,0.4,0.9,0.6,1.4l13.7-6.1C-163.8,74.2-164,73.8-164.2,73.3z
				 M-162,78.1l-13.6,6.4c0.2,0.5,0.4,0.9,0.7,1.4l13.5-6.5C-161.5,79-161.8,78.6-162,78.1z M-159.6,82.9l-13.4,6.8
				c0.2,0.5,0.5,0.9,0.7,1.4l13.3-6.9C-159.2,83.7-159.4,83.3-159.6,82.9z M-157.2,87.6l-13.2,7.2c0.2,0.5,0.5,0.9,0.7,1.4l13.1-7.3
				L-157.2,87.6z M-154.6,92.1l-13,7.6c0.3,0.4,0.5,0.9,0.8,1.3l12.9-7.7C-154.1,93-154.3,92.6-154.6,92.1z M-151.8,96.7l-12.7,7.9
				c0.3,0.4,0.6,0.9,0.8,1.3l12.7-8C-151.3,97.5-151.6,97.1-151.8,96.7z M-149,101.1l-12.5,8.3c0.3,0.4,0.6,0.9,0.9,1.3l12.4-8.4
				C-148.5,101.9-148.7,101.5-149,101.1z M-146,105.5l-12.2,8.7c0.3,0.4,0.6,0.8,0.9,1.3l12.2-8.8
				C-145.5,106.2-145.7,105.8-146,105.5z M-142.9,109.7l-12,9c0.3,0.4,0.6,0.8,0.9,1.2l11.9-9.1
				C-142.3,110.5-142.6,110.1-142.9,109.7z M-139.7,113.9l-11.7,9.3c0.3,0.4,0.6,0.8,1,1.2l11.7-9.4
				C-139.1,114.6-139.4,114.3-139.7,113.9z M-136.3,118l-11.5,9.7c0.3,0.4,0.7,0.8,1,1.2l11.4-9.8C-135.7,118.7-136,118.3-136.3,118
				z M-132.9,121.9l-11.2,10c0.3,0.4,0.7,0.8,1,1.2L-132,123C-132.2,122.6-132.6,122.3-132.9,121.9z M-129.3,125.8l-10.9,10.3
				c0.4,0.4,0.7,0.8,1.1,1.1l10.8-10.4C-128.7,126.5-129,126.2-129.3,125.8z M-125.6,129.6l-10.6,10.6c0.4,0.4,0.7,0.7,1.1,1.1
				l10.5-10.7L-125.6,129.6z M-121.9,133.2l-10.3,10.9c0.4,0.4,0.8,0.7,1.1,1.1l10.2-11L-121.9,133.2z M-118,136.8l-10,11.2
				c0.4,0.3,0.8,0.7,1.2,1l9.9-11.3C-117.3,137.4-117.6,137.1-118,136.8z M-114,140.2l-9.6,11.5c0.4,0.3,0.8,0.7,1.2,1l9.6-11.6
				C-113.2,140.9-113.6,140.5-114,140.2z M-109.9,143.6l-9.3,11.8c0.4,0.3,0.8,0.6,1.2,1l9.2-11.8L-109.9,143.6z M-105.7,146.8
				l-9,12l1.2,0.9l8.9-12.1L-105.7,146.8z M-101.5,149.9l-8.6,12.3c0.4,0.3,0.8,0.6,1.3,0.9l8.5-12.3
				C-100.7,150.4-101.1,150.1-101.5,149.9z M-97.1,152.8l-8.3,12.5c0.4,0.3,0.9,0.6,1.3,0.9l8.2-12.6
				C-96.3,153.3-96.7,153.1-97.1,152.8z M-92.7,155.6l-7.9,12.8c0.4,0.3,0.9,0.5,1.3,0.8l7.8-12.8
				C-91.9,156.1-92.3,155.9-92.7,155.6z M-88.2,158.3l-7.5,13c0.4,0.3,0.9,0.5,1.3,0.8l7.4-13C-87.4,158.8-87.8,158.6-88.2,158.3z
				 M-83.6,160.9l-7.2,13.2c0.5,0.2,0.9,0.5,1.4,0.7l7.1-13.2C-82.8,161.4-83.2,161.1-83.6,160.9z M86.2,163.2
				c-0.4,0.2-0.9,0.4-1.3,0.6l6.7,13.4c0.5-0.2,0.9-0.5,1.4-0.7L86.2,163.2z M-79,163.4l-6.8,13.4c0.5,0.2,0.9,0.5,1.4,0.7l6.7-13.4
				C-78.1,163.8-78.5,163.6-79,163.4z M81.5,165.5c-0.4,0.2-0.9,0.4-1.3,0.6l6.3,13.6c0.5-0.2,0.9-0.4,1.4-0.7L81.5,165.5z
				 M-74.2,165.7l-6.4,13.6c0.5,0.2,0.9,0.4,1.4,0.7l6.3-13.6C-73.4,166.1-73.8,165.9-74.2,165.7z M76.7,167.7
				c-0.4,0.2-0.9,0.4-1.3,0.6l5.9,13.8c0.5-0.2,1-0.4,1.4-0.6L76.7,167.7z M-69.5,167.8l-6,13.8c0.5,0.2,0.9,0.4,1.4,0.6l5.9-13.8
				C-68.6,168.2-69,168-69.5,167.8z M71.8,169.8c-0.4,0.2-0.9,0.4-1.3,0.5l5.5,14c0.5-0.2,1-0.4,1.5-0.6L71.8,169.8z M-64.6,169.8
				l-5.6,13.9c0.5,0.2,1,0.4,1.4,0.6l5.5-14C-63.7,170.2-64.2,170-64.6,169.8z M66.9,171.7c-0.5,0.2-0.9,0.3-1.4,0.5l5.1,14.1
				c0.5-0.2,1-0.4,1.5-0.5L66.9,171.7z M-59.7,171.7l-5.2,14.1c0.5,0.2,1,0.4,1.5,0.5l5.1-14.1C-58.8,172.1-59.2,171.9-59.7,171.7z
				 M61.9,173.4c-0.5,0.2-0.9,0.3-1.4,0.5l4.7,14.3c0.5-0.2,1-0.3,1.5-0.5L61.9,173.4z M-54.7,173.5l-4.8,14.2
				c0.5,0.2,1,0.3,1.5,0.5l4.7-14.3C-53.8,173.8-54.3,173.6-54.7,173.5z M56.8,175c-0.5,0.1-0.9,0.3-1.4,0.4l4.3,14.4
				c0.5-0.1,1-0.3,1.5-0.4L56.8,175z M-49.7,175.1l-4.4,14.4c0.5,0.1,1,0.3,1.5,0.4l4.2-14.4C-48.8,175.4-49.3,175.2-49.7,175.1z
				 M51.8,176.5c-0.5,0.1-0.9,0.2-1.4,0.4l3.8,14.5c0.5-0.1,1-0.3,1.5-0.4L51.8,176.5z M-44.7,176.5l-3.9,14.5
				c0.5,0.1,1,0.3,1.5,0.4l3.8-14.5C-43.7,176.8-44.2,176.7-44.7,176.5z M46.7,177.8c-0.5,0.1-0.9,0.2-1.4,0.3l3.4,14.6
				c0.5-0.1,1-0.2,1.5-0.4L46.7,177.8z M-39.6,177.8l-3.5,14.6l1.5,0.4l3.4-14.6L-39.6,177.8z M41.5,179c-0.5,0.1-0.9,0.2-1.4,0.3
				l3,14.7c0.5-0.1,1-0.2,1.5-0.3L41.5,179z M-34.4,179l-3.1,14.7c0.5,0.1,1,0.2,1.5,0.3l3-14.7C-33.5,179.2-34,179.1-34.4,179z
				 M36.4,180c-0.5,0.1-0.9,0.2-1.4,0.2l2.5,14.8c0.5-0.1,1-0.2,1.5-0.3L36.4,180z M-29.3,180l-2.7,14.8c0.5,0.1,1,0.2,1.5,0.3
				l2.5-14.8C-28.3,180.2-28.8,180.1-29.3,180z M31.2,180.9c-0.5,0.1-0.9,0.1-1.4,0.2l2.1,14.8c0.5-0.1,1-0.2,1.5-0.2L31.2,180.9z
				 M-24.1,180.9l-2.2,14.8c0.5,0.1,1,0.2,1.5,0.2l2.1-14.8C-23.1,181-23.6,181-24.1,180.9z M26,181.6c-0.5,0.1-0.9,0.1-1.4,0.2
				l1.7,14.9c0.5-0.1,1-0.1,1.5-0.2L26,181.6z M-18.8,181.6l-1.8,14.9c0.5,0.1,1,0.1,1.5,0.2l1.7-14.9
				C-17.9,181.7-18.4,181.7-18.8,181.6z M20.7,182.1c-0.5,0-1,0.1-1.4,0.1l1.3,14.9c0.5,0,1-0.1,1.5-0.1L20.7,182.1z M-13.6,182.2
				l-1.4,14.9c0.5,0,1,0.1,1.5,0.1l1.3-14.9C-12.6,182.2-13.1,182.2-13.6,182.2z M15.5,182.6c-0.5,0-1,0.1-1.4,0.1l0.9,15
				c0.5,0,1-0.1,1.6-0.1L15.5,182.6z M-8.3,182.6l-1,15c0.5,0,1,0.1,1.6,0.1l0.8-15C-7.4,182.6-7.9,182.6-8.3,182.6z M10.2,182.8
				c-0.5,0-1,0-1.4,0l0.4,15c0.5,0,1,0,1.6-0.1L10.2,182.8z M-3.1,182.8l-0.5,15c0.5,0,1,0,1.5,0l0.4-15
				C-2.1,182.9-2.6,182.8-3.1,182.8z M4.9,182.9c-0.5,0-1,0-1.4,0H2.2l-0.1,15c1,0,2,0,3,0L4.9,182.9z"/>
		</g>
	</g>
</symbol>
<symbol  id="circle5" viewBox="-203 -203 406 406">
	<path fill="none" stroke="#FF1F71" stroke-width="2" stroke-miterlimit="10" stroke-opacity="0" d="M-202,0
		c0,111.6,90.4,202,202,202S202,111.6,202,0S111.6-202,0-202S-202-111.6-202,0z"/>
	<path fill="#FF1F71" d="M-191-62.8l-1.9-0.6c13.1-39.6,38-73.9,70.6-98.5l1.2,1.6C-153.3-135.9-178-102-191-62.8z"/>
	<path fill="#FF1F71" d="M191,62.8l1.9,0.6c-13.1,39.6-38,73.9-70.6,98.5l-1.2-1.6C153.3,135.9,178,102,191,62.8z"/>
</symbol>
<symbol  id="circle_x5F_10Lines_x5F_small" viewBox="-202.7 -202.7 405.4 405.4">
	<g>
		<path fill="#FF1F71" d="M0-202.7L0-202.7L0-202.7c-0.5,0-1,0-1.5,0v0.4l-0.5,0.1l0.5,1l0.1,7.5c0.5,0,1,0,1.5,0h1.1l1-0.5l-2-4
			v-4.5H0z M4.1-202.6l-0.2,9c0.5,0,1,0,1.5,0l0.2-9C5.1-202.6,4.6-202.6,4.1-202.6z M-5.6-202.6c-0.5,0-1,0-1.5,0l0.3,9
			c0.5,0,1,0,1.5,0L-5.6-202.6z M9.7-202.5l-0.4,9c0.5,0,1,0,1.5,0.1l0.5-9C10.8-202.4,10.2-202.4,9.7-202.5z M-11.3-202.4
			c-0.5,0-1,0.1-1.5,0.1l0.6,9c0.5,0,1-0.1,1.5-0.1L-11.3-202.4z M15.4-202.1l-0.7,9c0.5,0,1,0.1,1.5,0.1l0.7-9
			C16.4-202,15.9-202.1,15.4-202.1z M-16.9-202c-0.5,0-1,0.1-1.5,0.1l0.8,9c0.5,0,1-0.1,1.5-0.1L-16.9-202z M21-201.6l-0.9,9
			l1.5,0.2l1-8.9L21-201.6z M-22.5-201.5c-0.5,0.1-1,0.1-1.5,0.2l1.1,8.9c0.5-0.1,1-0.1,1.4-0.2L-22.5-201.5z M26.6-201l-1.2,8.9
			c0.5,0.1,1,0.1,1.5,0.2l1.2-8.9C27.6-200.8,27.1-200.9,26.6-201z M-28.1-200.8c-0.5,0.1-1,0.1-1.5,0.2l1.3,8.9
			c0.5-0.1,1-0.1,1.4-0.2L-28.1-200.8z M32.1-200.2l-1.4,8.9c0.5,0.1,1,0.2,1.4,0.2l1.5-8.9C33.2-200,32.6-200.1,32.1-200.2z
			 M-33.6-199.9c-0.5,0.1-1,0.2-1.5,0.3l1.6,8.9c0.5-0.1,1-0.2,1.4-0.2L-33.6-199.9z M37.7-199.2l-1.7,8.8c0.5,0.1,1,0.2,1.4,0.3
			l1.7-8.8C38.7-199,38.2-199.1,37.7-199.2z M-39.2-198.9l-1.5,0.3l1.8,8.8l1.4-0.3L-39.2-198.9z M43.2-198.1l-1.9,8.8
			c0.5,0.1,0.9,0.2,1.4,0.3l2-8.8C44.2-197.9,43.7-198,43.2-198.1z M-44.7-197.7l-1.5,0.3l2,8.8l1.4-0.3L-44.7-197.7z M48.7-196.8
			l-2.2,8.7c0.5,0.1,0.9,0.2,1.4,0.4l2.2-8.7C49.7-196.5,49.2-196.7,48.7-196.8z M-50.2-196.4l-1.5,0.4l2.3,8.7l1.4-0.4L-50.2-196.4
			z M54.2-195.4l-2.4,8.7c0.5,0.1,0.9,0.3,1.4,0.4l2.5-8.7C55.2-195.1,54.7-195.2,54.2-195.4z M-55.6-195l-1.5,0.4l2.5,8.6l1.4-0.4
			L-55.6-195z M59.6-193.8l-2.7,8.6l1.4,0.4l2.7-8.6L59.6-193.8z M-61-193.3l-1.5,0.5l2.8,8.6l1.4-0.5L-61-193.3z M64.9-192.1
			l-2.9,8.5l1.4,0.5l2.9-8.5C65.9-191.7,65.4-191.9,64.9-192.1z M-66.4-191.6l-1.4,0.5l3,8.5l1.4-0.5L-66.4-191.6z M70.3-190.2
			l-3.1,8.4l1.4,0.5l3.2-8.4L70.3-190.2z M-71.7-189.6c-0.5,0.2-1,0.4-1.4,0.6l3.3,8.4c0.5-0.2,0.9-0.4,1.4-0.5L-71.7-189.6z
			 M75.5-188.2l-3.3,8.4c0.5,0.2,0.9,0.4,1.4,0.5l3.4-8.3C76.5-187.8,76-188,75.5-188.2z M-77-187.6c-0.5,0.2-0.9,0.4-1.4,0.6
			l3.5,8.3c0.5-0.2,0.9-0.4,1.4-0.6L-77-187.6z M80.7-186l-3.6,8.3c0.4,0.2,0.9,0.4,1.3,0.6l3.6-8.2C81.6-185.6,81.2-185.8,80.7-186
			z M-82.2-185.3c-0.5,0.2-0.9,0.4-1.4,0.6l3.7,8.2c0.4-0.2,0.9-0.4,1.3-0.6L-82.2-185.3z M85.8-183.7l-3.8,8.1
			c0.4,0.2,0.9,0.4,1.3,0.6l3.9-8.1C86.7-183.2,86.3-183.5,85.8-183.7z M-87.3-183c-0.5,0.2-0.9,0.4-1.4,0.7l3.9,8.1
			c0.4-0.2,0.9-0.4,1.3-0.6L-87.3-183z M90.9-181.2l-4,8c0.4,0.2,0.9,0.4,1.3,0.7l4.1-8C91.8-180.8,91.3-181,90.9-181.2z
			 M-92.4-180.5c-0.5,0.2-0.9,0.5-1.4,0.7l4.2,8l1.3-0.7L-92.4-180.5z M95.9-178.6l-4.3,7.9c0.4,0.2,0.9,0.5,1.3,0.7l4.3-7.9
			C96.8-178.1,96.3-178.4,95.9-178.6z M-97.4-177.8c-0.5,0.2-0.9,0.5-1.4,0.8l4.4,7.9c0.4-0.2,0.9-0.5,1.3-0.7L-97.4-177.8z
			 M100.8-175.9l-4.5,7.8l1.3,0.7l4.5-7.8L100.8-175.9z M-102.3-175l-1.3,0.8l4.6,7.7l1.3-0.8L-102.3-175z M105.6-173l-4.7,7.7
			c0.4,0.3,0.8,0.5,1.2,0.8l4.8-7.6C106.5-172.5,106-172.8,105.6-173z M-107.1-172.1c-0.4,0.3-0.9,0.5-1.3,0.8l4.8,7.6
			c0.4-0.3,0.8-0.5,1.2-0.8L-107.1-172.1z M110.4-170l-4.9,7.5c0.4,0.3,0.8,0.5,1.2,0.8l5-7.5C111.2-169.5,110.8-169.8,110.4-170z
			 M-111.9-169.1c-0.4,0.3-0.9,0.6-1.3,0.9l5,7.5c0.4-0.3,0.8-0.5,1.2-0.8L-111.9-169.1z M115-166.9l-5.1,7.4
			c0.4,0.3,0.8,0.6,1.2,0.8l5.2-7.4C115.9-166.3,115.5-166.6,115-166.9z M-116.5-165.9c-0.4,0.3-0.8,0.6-1.3,0.9l5.2,7.3
			c0.4-0.3,0.8-0.6,1.2-0.9L-116.5-165.9z M119.6-163.6l-5.3,7.3c0.4,0.3,0.8,0.6,1.2,0.9l5.4-7.2C120.4-163,120-163.3,119.6-163.6z
			 M-121.1-162.6c-0.4,0.3-0.8,0.6-1.2,0.9l5.4,7.2c0.4-0.3,0.8-0.6,1.2-0.9L-121.1-162.6z M124.1-160.3l-5.5,7.1
			c0.4,0.3,0.8,0.6,1.2,0.9l5.6-7.1C124.9-159.6,124.5-159.9,124.1-160.3z M-125.5-159.1c-0.4,0.3-0.8,0.6-1.2,1l5.6,7
			c0.4-0.3,0.8-0.6,1.1-0.9L-125.5-159.1z M128.5-156.7l-5.7,7c0.4,0.3,0.8,0.6,1.1,0.9l5.8-6.9
			C129.3-156.1,128.9-156.4,128.5-156.7z M-129.9-155.6c-0.4,0.3-0.8,0.7-1.2,1l5.8,6.9c0.4-0.3,0.7-0.6,1.1-0.9L-129.9-155.6z
			 M132.8-153.1l-5.9,6.8l1.1,1l6-6.7C133.6-152.4,133.2-152.8,132.8-153.1z M-134.2-151.9c-0.4,0.3-0.8,0.7-1.1,1l6,6.7
			c0.4-0.3,0.7-0.7,1.1-1L-134.2-151.9z M137-149.4l-6.1,6.6c0.4,0.3,0.7,0.7,1.1,1l6.1-6.6C137.8-148.7,137.4-149,137-149.4z
			 M-138.4-148.1c-0.4,0.4-0.7,0.7-1.1,1.1l6.2,6.5c0.4-0.3,0.7-0.7,1.1-1L-138.4-148.1z M141.1-145.5l-6.3,6.5c0.4,0.3,0.7,0.7,1,1
			l6.3-6.4C141.9-144.8,141.5-145.1,141.1-145.5z M-142.4-144.2c-0.4,0.4-0.7,0.7-1.1,1.1l6.4,6.4c0.3-0.3,0.7-0.7,1-1L-142.4-144.2
			z M145.1-141.5l-6.4,6.3c0.3,0.3,0.7,0.7,1,1.1l6.5-6.2C145.8-140.8,145.5-141.2,145.1-141.5z M-146.4-140.2
			c-0.4,0.4-0.7,0.7-1.1,1.1l6.5,6.2c0.3-0.4,0.7-0.7,1-1.1L-146.4-140.2z M149-137.4l-6.6,6.1c0.3,0.4,0.7,0.7,1,1.1l6.7-6
			C149.7-136.7,149.3-137.1,149-137.4z M-150.2-136.1c-0.3,0.4-0.7,0.8-1,1.1l6.7,6c0.3-0.4,0.7-0.7,1-1.1L-150.2-136.1z
			 M152.7-133.2l-6.8,5.9l1,1.1l6.8-5.9C153.4-132.5,153.1-132.9,152.7-133.2z M-153.9-131.9c-0.3,0.4-0.7,0.8-1,1.2l6.9,5.8
			c0.3-0.4,0.6-0.7,0.9-1.1L-153.9-131.9z M156.4-128.9l-6.9,5.7l0.9,1.1l7-5.7L156.4-128.9z M-157.6-127.5c-0.3,0.4-0.6,0.8-1,1.2
			l7,5.6c0.3-0.4,0.6-0.8,0.9-1.1L-157.6-127.5z M159.9-124.5l-7.1,5.5c0.3,0.4,0.6,0.8,0.9,1.2l7.1-5.5
			C160.6-123.7,160.2-124.1,159.9-124.5z M-161-123.1c-0.3,0.4-0.6,0.8-0.9,1.2l7.2,5.4c0.3-0.4,0.6-0.8,0.9-1.2L-161-123.1z
			 M163.3-120.1l-7.2,5.3c0.3,0.4,0.6,0.8,0.9,1.2l7.3-5.3C163.9-119.2,163.6-119.6,163.3-120.1z M-164.4-118.6
			c-0.3,0.4-0.6,0.8-0.9,1.3l7.3,5.2c0.3-0.4,0.6-0.8,0.9-1.2L-164.4-118.6z M166.6-115.5l-7.4,5.1l0.8,1.2l7.4-5.1L166.6-115.5z
			 M-167.6-114l-0.9,1.3l7.5,5l0.8-1.2L-167.6-114z M169.8-110.8l-7.5,4.9l0.8,1.2l7.6-4.9L169.8-110.8z M-170.7-109.3
			c-0.3,0.4-0.5,0.9-0.8,1.3l7.6,4.8c0.3-0.4,0.5-0.8,0.8-1.2L-170.7-109.3z M172.8-106l-7.7,4.7c0.3,0.4,0.5,0.8,0.8,1.3l7.7-4.7
			C173.3-105.1,173.1-105.6,172.8-106z M-173.7-104.5c-0.3,0.4-0.5,0.9-0.8,1.3l7.7,4.6c0.2-0.4,0.5-0.8,0.8-1.3L-173.7-104.5z
			 M175.7-101.2l-7.8,4.5l0.7,1.3l7.8-4.4L175.7-101.2z M-176.5-99.7c-0.3,0.4-0.5,0.9-0.8,1.3l7.9,4.4c0.2-0.4,0.5-0.9,0.7-1.3
			L-176.5-99.7z M178.4-96.2l-7.9,4.3l0.7,1.3l7.9-4.2L178.4-96.2z M-179.2-94.7c-0.2,0.5-0.5,0.9-0.7,1.4l8,4.2
			c0.2-0.4,0.5-0.9,0.7-1.3L-179.2-94.7z M181-91.2l-8,4.1c0.2,0.4,0.4,0.9,0.7,1.3l8.1-4C181.5-90.3,181.3-90.8,181-91.2z
			 M-181.8-89.7c-0.2,0.5-0.5,0.9-0.7,1.4l8.1,3.9c0.2-0.4,0.4-0.9,0.6-1.3L-181.8-89.7z M183.5-86.1l-8.1,3.8
			c0.2,0.4,0.4,0.9,0.6,1.3l8.2-3.8C184-85.2,183.7-85.7,183.5-86.1z M-184.2-84.7c-0.2,0.5-0.4,0.9-0.6,1.4l8.2,3.7
			c0.2-0.4,0.4-0.9,0.6-1.3L-184.2-84.7z M185.9-81l-8.2,3.6c0.2,0.5,0.4,0.9,0.6,1.4l8.3-3.5C186.3-80.1,186.1-80.5,185.9-81z
			 M-186.5-79.5c-0.2,0.5-0.4,0.9-0.6,1.4l8.3,3.5c0.2-0.5,0.4-0.9,0.6-1.3L-186.5-79.5z M188-75.8l-8.3,3.4
			c0.2,0.5,0.4,0.9,0.5,1.4l8.4-3.3C188.4-74.8,188.2-75.3,188-75.8z M-188.6-74.3c-0.2,0.5-0.4,1-0.6,1.4l8.4,3.2
			c0.2-0.5,0.4-0.9,0.5-1.4L-188.6-74.3z M190.1-70.5l-8.4,3.1c0.2,0.5,0.3,0.9,0.5,1.4l8.5-3.1C190.4-69.6,190.3-70,190.1-70.5z
			 M-190.6-69.1c-0.2,0.5-0.3,1-0.5,1.4l8.5,3c0.2-0.5,0.3-0.9,0.5-1.4L-190.6-69.1z M192-65.2l-8.5,2.9l0.5,1.4l8.5-2.8L192-65.2z
			 M-192.5-63.7c-0.2,0.5-0.3,1-0.5,1.5l8.6,2.8c0.2-0.5,0.3-0.9,0.5-1.4L-192.5-63.7z M193.7-59.8l-8.6,2.6l0.4,1.4l8.6-2.6
			L193.7-59.8z M-194.2-58.4c-0.1,0.5-0.3,1-0.4,1.5l8.6,2.5c0.1-0.5,0.3-0.9,0.4-1.4L-194.2-58.4z M195.3-54.4l-8.7,2.4l0.4,1.4
			l8.7-2.3C195.6-53.4,195.4-53.9,195.3-54.4z M-195.7-52.9c-0.1,0.5-0.3,1-0.4,1.5l8.7,2.3c0.1-0.5,0.3-0.9,0.4-1.4L-195.7-52.9z
			 M196.7-48.9l-8.7,2.2l0.4,1.4l8.8-2.1L196.7-48.9z M-197.1-47.5c-0.1,0.5-0.2,1-0.4,1.5l8.8,2c0.1-0.5,0.2-1,0.3-1.4L-197.1-47.5
			z M198-43.4l-8.8,1.9l0.3,1.4l8.8-1.9L198-43.4z M-198.3-42c-0.1,0.5-0.2,1-0.3,1.5l8.8,1.8c0.1-0.5,0.2-1,0.3-1.4L-198.3-42z
			 M199.1-37.9l-8.8,1.7c0.1,0.5,0.2,1,0.3,1.4l8.9-1.6C199.3-36.9,199.2-37.4,199.1-37.9z M-199.4-36.5c-0.1,0.5-0.2,1-0.3,1.5
			l8.9,1.5c0.1-0.5,0.2-1,0.3-1.4L-199.4-36.5z M200.1-32.4l-8.9,1.4c0.1,0.5,0.2,1,0.2,1.4l8.9-1.4
			C200.3-31.4,200.2-31.9,200.1-32.4z M-200.4-30.9c-0.1,0.5-0.2,1-0.2,1.5l8.9,1.3c0.1-0.5,0.1-1,0.2-1.5L-200.4-30.9z M200.9-26.8
			l-8.9,1.2c0.1,0.5,0.1,1,0.2,1.4l8.9-1.1C201.1-25.8,201-26.3,200.9-26.8z M-201.1-25.3c-0.1,0.5-0.1,1-0.2,1.5l8.9,1
			c0.1-0.5,0.1-1,0.2-1.5L-201.1-25.3z M201.6-21.2l-8.9,0.9c0.1,0.5,0.1,1,0.1,1.5l9-0.9C201.7-20.2,201.6-20.7,201.6-21.2z
			 M-201.7-19.7c0,0.5-0.1,1-0.1,1.5l9,0.8c0-0.5,0.1-1,0.1-1.5L-201.7-19.7z M202.1-15.6l-9,0.7c0,0.5,0.1,1,0.1,1.5l9-0.6
			C202.2-14.6,202.1-15.1,202.1-15.6z M-202.2-14.1l-0.1,1.5l9,0.6l0.1-1.5L-202.2-14.1z M202.4-10l-9,0.4c0,0.5,0,1,0.1,1.5l9-0.4
			C202.5-8.9,202.5-9.5,202.4-10z M-202.5-8.5c0,0.5,0,1-0.1,1.5l9,0.3c0-0.5,0-1,0.1-1.5L-202.5-8.5z M202.6-4.3l-9,0.2
			c0,0.5,0,1,0,1.5l9-0.1C202.7-3.3,202.7-3.8,202.6-4.3z M-202.7-2.8c0,0.5,0,1,0,1.5l9,0.1c0-0.5,0-1,0-1.5L-202.7-2.8z
			 M193.7,1.2c0,0.5,0,1,0,1.5l9,0.1c0-0.5,0-1,0-1.5L193.7,1.2z M-193.7,2.7l-9,0.1v1.5l9-0.2V2.7z M193.6,6.6c0,0.5,0,1-0.1,1.5
			l9,0.4c0-0.5,0-1,0.1-1.5L193.6,6.6z M-193.5,8l-9,0.4c0,0.5,0,1,0.1,1.5l9-0.4C-193.5,9-193.5,8.5-193.5,8z M193.3,12
			c0,0.5-0.1,1-0.1,1.5l9,0.6c0-0.5,0.1-1,0.1-1.5L193.3,12z M-193.2,13.4l-9,0.6c0,0.5,0.1,1,0.1,1.5l9-0.7
			C-193.2,14.4-193.2,13.9-193.2,13.4z M192.9,17.4l-0.1,1.5l9,0.9l0.1-1.5L192.9,17.4z M-192.8,18.8l-9,0.9c0,0.5,0.1,1,0.2,1.5
			l9-0.9C-192.7,19.8-192.7,19.3-192.8,18.8z M192.4,22.7l-0.2,1.5l8.9,1.1l0.2-1.5L192.4,22.7z M-192.2,24.1l-8.9,1.1
			c0.1,0.5,0.1,1,0.2,1.5l8.9-1.2C-192.1,25.1-192.1,24.6-192.2,24.1z M191.7,28.1c-0.1,0.5-0.1,1-0.2,1.5l8.9,1.4
			c0.1-0.5,0.2-1,0.2-1.5L191.7,28.1z M-191.5,29.5l-8.9,1.4c0.1,0.5,0.2,1,0.2,1.5l8.9-1.4C-191.3,30.5-191.4,30-191.5,29.5z
			 M190.8,33.4c-0.1,0.5-0.2,1-0.3,1.4l8.9,1.6c0.1-0.5,0.2-1,0.3-1.5L190.8,33.4z M-190.6,34.8l-8.9,1.6c0.1,0.5,0.2,1,0.3,1.5
			l8.8-1.7C-190.4,35.8-190.5,35.3-190.6,34.8z M189.8,38.7c-0.1,0.5-0.2,1-0.3,1.4l8.8,1.9c0.1-0.5,0.2-1,0.3-1.5L189.8,38.7z
			 M-189.5,40.1l-8.8,1.8c0.1,0.5,0.2,1,0.3,1.5l8.8-1.9C-189.3,41-189.4,40.6-189.5,40.1z M188.7,43.9c-0.1,0.5-0.2,0.9-0.3,1.4
			l8.8,2.1c0.1-0.5,0.2-1,0.4-1.5L188.7,43.9z M187.4,49.2c-0.1,0.5-0.2,0.9-0.4,1.4l8.7,2.4c0.1-0.5,0.3-1,0.4-1.5L187.4,49.2z
			 M186,54.4l-0.4,1.4l8.6,2.6c0.1-0.5,0.3-1,0.4-1.5L186,54.4z M184.4,59.5l-0.5,1.4l8.5,2.8l0.5-1.5L184.4,59.5z M182.7,64.6
			c-0.2,0.5-0.3,0.9-0.5,1.4l8.5,3.1c0.2-0.5,0.3-1,0.5-1.5L182.7,64.6z M180.8,69.7c-0.2,0.5-0.4,0.9-0.5,1.4l8.4,3.3
			c0.2-0.5,0.4-1,0.6-1.4L180.8,69.7z M178.8,74.6l-0.6,1.4l8.3,3.5c0.2-0.5,0.4-0.9,0.6-1.4L178.8,74.6z M176.6,79.6
			c-0.2,0.4-0.4,0.9-0.6,1.3l8.2,3.8c0.2-0.5,0.4-0.9,0.6-1.4L176.6,79.6z M174.4,84.4c-0.2,0.4-0.4,0.9-0.6,1.3l8.1,4
			c0.2-0.5,0.5-0.9,0.7-1.4L174.4,84.4z M172,89.2l-0.7,1.3l8,4.2c0.2-0.5,0.5-0.9,0.7-1.4L172,89.2z M169.4,94
			c-0.2,0.4-0.5,0.8-0.7,1.3l7.8,4.4c0.3-0.4,0.5-0.9,0.8-1.3L169.4,94z M166.7,98.6c-0.2,0.4-0.5,0.8-0.7,1.3l7.7,4.6
			c0.3-0.4,0.5-0.9,0.8-1.3L166.7,98.6z M163.9,103.2c-0.3,0.4-0.5,0.8-0.8,1.2l7.6,4.9c0.3-0.4,0.5-0.9,0.8-1.3L163.9,103.2z
			 M161,107.7c-0.3,0.4-0.5,0.8-0.8,1.2l7.4,5.1c0.3-0.4,0.6-0.8,0.9-1.3L161,107.7z M158,112.1c-0.3,0.4-0.6,0.8-0.9,1.2l7.3,5.3
			c0.3-0.4,0.6-0.8,0.9-1.2L158,112.1z M154.8,116.5c-0.3,0.4-0.6,0.8-0.9,1.2l7.1,5.5c0.3-0.4,0.6-0.8,0.9-1.2L154.8,116.5z
			 M151.5,120.7c-0.3,0.4-0.6,0.8-0.9,1.1l7,5.7c0.3-0.4,0.6-0.8,1-1.2L151.5,120.7z M148.1,124.9c-0.3,0.4-0.6,0.7-0.9,1.1l6.8,5.9
			c0.3-0.4,0.7-0.8,1-1.2L148.1,124.9z M144.5,128.9l-1,1.1l6.7,6l1-1.1L144.5,128.9z M140.9,132.9c-0.3,0.4-0.7,0.7-1,1.1l6.5,6.2
			c0.4-0.4,0.7-0.7,1.1-1.1L140.9,132.9z M137.2,136.8c-0.3,0.3-0.7,0.7-1,1l6.3,6.4c0.4-0.4,0.7-0.7,1.1-1.1L137.2,136.8z
			 M133.3,140.5c-0.4,0.3-0.7,0.7-1.1,1l6.1,6.6c0.4-0.4,0.7-0.7,1.1-1.1L133.3,140.5z M129.3,144.2l-1.1,1l6,6.7l1.1-1L129.3,144.2
			z M125.3,147.7c-0.4,0.3-0.7,0.6-1.1,0.9l5.8,6.9c0.4-0.3,0.8-0.7,1.2-1L125.3,147.7z M121.1,151.2c-0.4,0.3-0.8,0.6-1.1,0.9
			l5.6,7.1c0.4-0.3,0.8-0.6,1.2-1L121.1,151.2z M116.9,154.5c-0.4,0.3-0.8,0.6-1.2,0.9l5.4,7.2c0.4-0.3,0.8-0.6,1.2-0.9L116.9,154.5
			z M112.5,157.7c-0.4,0.3-0.8,0.6-1.2,0.8l5.2,7.4c0.4-0.3,0.8-0.6,1.3-0.9L112.5,157.7z M108.1,160.7l-1.2,0.8l5,7.5l1.3-0.8
			L108.1,160.7z M103.6,163.7c-0.4,0.3-0.8,0.5-1.2,0.8l4.8,7.6c0.4-0.3,0.9-0.5,1.3-0.8L103.6,163.7z M99,166.5
			c-0.4,0.3-0.8,0.5-1.3,0.7l4.5,7.8c0.4-0.3,0.9-0.5,1.3-0.8L99,166.5z M94.3,169.2c-0.4,0.2-0.9,0.5-1.3,0.7l4.3,7.9
			c0.5-0.2,0.9-0.5,1.3-0.7L94.3,169.2z M89.6,171.8c-0.4,0.2-0.9,0.5-1.3,0.7l4.1,8c0.5-0.2,0.9-0.5,1.4-0.7L89.6,171.8z
			 M84.8,174.2c-0.4,0.2-0.9,0.4-1.3,0.6l3.9,8.1c0.5-0.2,0.9-0.4,1.4-0.7L84.8,174.2z M79.9,176.5l-1.3,0.6l3.7,8.2l1.4-0.6
			L79.9,176.5z M74.9,178.7c-0.5,0.2-0.9,0.4-1.4,0.6l3.4,8.3c0.5-0.2,1-0.4,1.4-0.6L74.9,178.7z M69.9,180.7
			c-0.5,0.2-0.9,0.4-1.4,0.5l3.2,8.4c0.5-0.2,1-0.4,1.4-0.6L69.9,180.7z M64.9,182.6c-0.5,0.2-0.9,0.3-1.4,0.5l3,8.5
			c0.5-0.2,1-0.3,1.5-0.5L64.9,182.6z M59.7,184.3c-0.5,0.2-0.9,0.3-1.4,0.4l2.7,8.6c0.5-0.2,1-0.3,1.5-0.5L59.7,184.3z M54.6,185.9
			c-0.5,0.1-0.9,0.3-1.4,0.4l2.5,8.7c0.5-0.1,1-0.3,1.5-0.4L54.6,185.9z M49.4,187.3c-0.5,0.1-0.9,0.2-1.4,0.4l2.2,8.7
			c0.5-0.1,1-0.3,1.5-0.4L49.4,187.3z M44.2,188.6c-0.5,0.1-1,0.2-1.4,0.3l2,8.8c0.5-0.1,1-0.2,1.5-0.3L44.2,188.6z M38.9,189.8
			c-0.5,0.1-1,0.2-1.4,0.3l1.7,8.8c0.5-0.1,1-0.2,1.5-0.3L38.9,189.8z M33.6,190.8c-0.5,0.1-1,0.2-1.4,0.2l1.5,8.9
			c0.5-0.1,1-0.2,1.5-0.3L33.6,190.8z M28.3,191.6c-0.5,0.1-1,0.1-1.5,0.2l1.2,8.9c0.5-0.1,1-0.1,1.5-0.2L28.3,191.6z M23,192.3
			c-0.5,0.1-1,0.1-1.5,0.2l1,8.9c0.5-0.1,1-0.1,1.5-0.2L23,192.3z M17.6,192.9c-0.5,0-1,0.1-1.5,0.1l0.7,9c0.5,0,1-0.1,1.5-0.1
			L17.6,192.9z M12.2,193.3c-0.5,0-1,0.1-1.5,0.1l0.5,9c0.5,0,1-0.1,1.5-0.1L12.2,193.3z M6.9,193.6c-0.5,0-1,0-1.5,0l0.2,9
			c0.5,0,1,0,1.5,0L6.9,193.6z M1.5,193.7c-0.5,0-1,0-1.5,0v9l0,0c0.5,0,1,0,1.5,0V193.7z"/>
	</g>
	<path fill="none" stroke="#000000" stroke-miterlimit="10" stroke-opacity="0" d="M0,198.2c109.5,0,198.2-88.7,198.2-198.2
		S109.5-198.2,0-198.2S-198.2-109.5-198.2,0S-109.5,198.2,0,198.2z"/>
</symbol>
<symbol  id="circle_x5F_2_2_" viewBox="-221 -221 442 442">
	<path fill="none" d="M19.5,218.2C132.4,208.8,221,114.3,221-1c0-121.5-98.5-220-220-220S-219-122.5-219-1s98.5,220,220,220
		C7.2,219,13.4,218.7,19.5,218.2"/>
	<path fill="#FF1F71" d="M-153.1-155.1C-194.3-114-217-59.2-217-1s22.7,113,63.9,154.1S-57.2,217,1,217c5.3,0,10.7-0.2,16-0.6l0.3,4
		C11.9,220.8,6.4,221,1,221c-59.3,0-115-23.1-157-65s-65-97.7-65-157s23.1-115,65-157c3.5-3.5,7.2-6.9,10.9-10.2l2.6,3
		C-146.1-162-149.7-158.6-153.1-155.1z"/>
</symbol>
<symbol  id="circle_x5F_4" viewBox="-214.3 -214 428.5 428">
	<path fill="none" stroke="#FF1F71" stroke-width="13" stroke-miterlimit="10" stroke-opacity="0" d="M-207.8,0
		c0,114.6,92.9,207.5,207.5,207.5S207.2,114.6,207.2,0S114.3-207.5-0.2-207.5S-207.8-114.6-207.8,0z"/>
	<g>
		<path fill="#FF1F71" d="M151.6,151.3C111.2,191.7,57.5,214,0.2,214v-13c110.8,0,201-90.2,201-201S111-201,0.2-201v-13
			c118,0,214,96,214,214C214.2,57.2,191.9,110.9,151.6,151.3z"/>
	</g>
</symbol>
<symbol  id="circle_x5F_6" viewBox="-195.5 -195.5 391 391">
	<path fill="none" stroke="#FF1F71" stroke-width="3" stroke-miterlimit="10" stroke-opacity="0" d="M-194,0
		c0,107.1,86.9,194,194,194S194,107.1,194,0S107.1-194,0-194S-194-107.1-194,0z"/>
	<g>
		<path fill="#FF1F71" d="M176.1,77.7l2.7,1.2c-24.7,55.8-74.8,98-135.5,111.8l-0.7-2.9C102.5,174.1,151.8,132.6,176.1,77.7z"/>
	</g>
</symbol>
<symbol  id="circle_x5F_7" viewBox="-194 -194 388 388">
	<g>
		<path fill="none" d="M-171,0c0-94.1,76.4-170.7,170.5-171v342C-94.6,170.7-171,94.1-171,0z"/>
		<path fill="#FF1F71" d="M-171,0c0,94.1,76.4,170.7,170.5,171v23C-107.2,193.7-194,106.8-194,0s86.8-193.7,193.5-194v23
			C-94.6-170.7-171-94.1-171,0z"/>
	</g>
	<path fill="none" stroke="#FF1F71" stroke-width="23" stroke-miterlimit="10" stroke-opacity="0" d="M-182.5,0
		c0,100.8,81.7,182.5,182.5,182.5S182.5,100.8,182.5,0S100.8-182.5,0-182.5S-182.5-100.8-182.5,0z"/>
</symbol>
<symbol  id="circle_x5F_8" viewBox="-214.5 -214.5 429 429">
	<path fill="none" stroke="#FF1F71" stroke-width="3" stroke-miterlimit="10" stroke-opacity="0" d="M0,213
		c117.7,0,213-95.4,213-213S117.7-213,0-213S-213-117.7-213,0S-117.7,213,0,213z"/>
	<g>
		<path fill="#FF1F71" d="M-211.5,0c0,66.1,30.5,125.3,78.2,164.1l-2,2.4c-5.7-4.6-11.2-9.6-16.4-14.8
			c-40.5-40.5-62.8-94.4-62.8-151.7s22.3-111.2,62.8-151.7c40.3-40.3,93.9-62.6,150.9-62.8v3C-117.1-211.1-211.5-116.4-211.5,0z"/>
	</g>
</symbol>
<symbol  id="dots_x5F_4_2_" viewBox="-208.5 -208.5 417 417">
	<g>
		<path fill="#FF1F71" d="M3.3-208.5v2c0.7,0,1.3,0,2,0v-2C4.6-208.5,4-208.5,3.3-208.5z M-4.8-208.4c-0.7,0-1.3,0-2,0.1l0.1,2
			c0.7,0,1.3,0,2-0.1L-4.8-208.4z M13.4-208.1l-0.1,2c0.7,0,1.3,0.1,2,0.1l0.1-2C14.7-208,14-208,13.4-208.1z M-14.8-208
			c-0.7,0-1.3,0.1-2,0.2l0.2,2c0.7-0.1,1.3-0.1,2-0.2L-14.8-208z M23.4-207.2l-0.2,2c0.7,0.1,1.3,0.2,2,0.2l0.2-2
			C24.7-207,24.1-207.1,23.4-207.2z M-24.8-207c-0.7,0.1-1.3,0.2-2,0.2l0.3,2c0.7-0.1,1.3-0.2,2-0.2L-24.8-207z M33.4-205.8l-0.3,2
			c0.7,0.1,1.3,0.2,2,0.3l0.3-2C34.7-205.6,34-205.7,33.4-205.8z M-34.8-205.6c-0.7,0.1-1.3,0.2-2,0.3l0.4,2c0.7-0.1,1.3-0.2,2-0.3
			L-34.8-205.6z M43.3-204l-0.4,2c0.7,0.1,1.3,0.3,2,0.4l0.4-2C44.6-203.7,43.9-203.9,43.3-204z M-44.7-203.7
			c-0.7,0.1-1.3,0.3-2,0.4l0.4,1.9c0.6-0.1,1.3-0.3,1.9-0.4L-44.7-203.7z M53.1-201.7l-0.5,1.9c0.6,0.2,1.3,0.3,1.9,0.5l0.5-1.9
			C54.4-201.3,53.7-201.5,53.1-201.7z M-54.5-201.3c-0.6,0.2-1.3,0.4-1.9,0.5l0.5,1.9c0.6-0.2,1.3-0.4,1.9-0.5L-54.5-201.3z
			 M62.8-198.9l-0.6,1.9c0.6,0.2,1.3,0.4,1.9,0.6l0.6-1.9C64.1-198.5,63.4-198.7,62.8-198.9z M-64.2-198.4c-0.6,0.2-1.3,0.4-1.9,0.6
			l0.6,1.9c0.6-0.2,1.3-0.4,1.9-0.6L-64.2-198.4z M72.3-195.6l-0.7,1.9c0.6,0.2,1.2,0.5,1.9,0.7l0.7-1.9
			C73.6-195.2,72.9-195.4,72.3-195.6z M-73.7-195.1c-0.6,0.2-1.3,0.5-1.9,0.7l0.7,1.9c0.6-0.2,1.2-0.5,1.9-0.7L-73.7-195.1z
			 M81.6-191.9l-0.8,1.8c0.6,0.3,1.2,0.5,1.8,0.8l0.8-1.8C82.9-191.4,82.3-191.6,81.6-191.9z M-83.1-191.3c-0.6,0.3-1.2,0.5-1.9,0.8
			l0.8,1.8c0.6-0.3,1.2-0.5,1.8-0.8L-83.1-191.3z M90.8-187.7l-0.9,1.8c0.6,0.3,1.2,0.6,1.8,0.9l0.9-1.8
			C92-187.2,91.4-187.5,90.8-187.7z M-92.2-187.1c-0.6,0.3-1.2,0.6-1.8,0.9l0.9,1.8c0.6-0.3,1.2-0.6,1.8-0.9L-92.2-187.1z
			 M99.7-183.1l-1,1.8c0.6,0.3,1.2,0.6,1.7,1l1-1.7C100.9-182.5,100.3-182.8,99.7-183.1z M-101.1-182.4c-0.6,0.3-1.2,0.7-1.8,1
			l1,1.7c0.6-0.3,1.2-0.7,1.7-1L-101.1-182.4z M108.4-178.1l-1,1.7c0.6,0.3,1.1,0.7,1.7,1l1.1-1.7
			C109.6-177.4,109-177.8,108.4-178.1z M-109.8-177.2c-0.6,0.4-1.1,0.7-1.7,1.1l1.1,1.7c0.6-0.4,1.1-0.7,1.7-1.1L-109.8-177.2z
			 M116.9-172.7l-1.1,1.7c0.5,0.4,1.1,0.7,1.6,1.1l1.1-1.6C118-171.9,117.4-172.3,116.9-172.7z M-118.3-171.7
			c-0.6,0.4-1.1,0.8-1.7,1.2l1.2,1.6c0.5-0.4,1.1-0.8,1.6-1.1L-118.3-171.7z M125.1-166.8l-1.2,1.6c0.5,0.4,1.1,0.8,1.6,1.2l1.2-1.6
			C126.2-166,125.6-166.4,125.1-166.8z M-126.4-165.8c-0.5,0.4-1.1,0.8-1.6,1.2l1.2,1.6c0.5-0.4,1.1-0.8,1.6-1.2L-126.4-165.8z
			 M133-160.6l-1.3,1.5c0.5,0.4,1,0.9,1.5,1.3l1.3-1.5C134-159.7,133.5-160.2,133-160.6z M-134.3-159.5c-0.5,0.4-1,0.9-1.5,1.3
			l1.3,1.5c0.5-0.4,1-0.9,1.5-1.3L-134.3-159.5z M140.6-154l-1.3,1.5c0.5,0.4,1,0.9,1.5,1.4l1.4-1.5
			C141.6-153.1,141.1-153.5,140.6-154z M-141.9-152.8c-0.5,0.5-1,0.9-1.5,1.4l1.4,1.5c0.5-0.5,1-0.9,1.5-1.4L-141.9-152.8z
			 M147.9-147l-1.4,1.4c0.5,0.5,0.9,0.9,1.4,1.4l1.4-1.4C148.8-146.1,148.3-146.5,147.9-147z M-149.1-145.8c-0.5,0.5-0.9,1-1.4,1.4
			l1.4,1.4c0.5-0.5,0.9-1,1.4-1.4L-149.1-145.8z M154.8-139.7l-1.5,1.3c0.4,0.5,0.9,1,1.3,1.5l1.5-1.3
			C155.7-138.7,155.2-139.2,154.8-139.7z M-155.9-138.4c-0.4,0.5-0.9,1-1.3,1.5l1.5,1.3c0.4-0.5,0.9-1,1.3-1.5L-155.9-138.4z
			 M161.4-132.1l-1.5,1.3c0.4,0.5,0.8,1,1.3,1.6l1.6-1.3C162.2-131,161.8-131.5,161.4-132.1z M-162.4-130.7c-0.4,0.5-0.8,1-1.3,1.6
			l1.6,1.2c0.4-0.5,0.8-1,1.2-1.6L-162.4-130.7z M167.6-124.1l-1.6,1.2c0.4,0.5,0.8,1.1,1.2,1.6l1.6-1.2
			C168.4-123,168-123.6,167.6-124.1z M-168.6-122.7c-0.4,0.5-0.8,1.1-1.2,1.6l1.6,1.2c0.4-0.5,0.8-1.1,1.2-1.6L-168.6-122.7z
			 M173.4-115.9l-1.7,1.1c0.4,0.6,0.7,1.1,1.1,1.7l1.7-1.1C174.1-114.8,173.7-115.3,173.4-115.9z M-174.3-114.5
			c-0.4,0.6-0.7,1.1-1.1,1.7l1.7,1.1c0.4-0.6,0.7-1.1,1.1-1.7L-174.3-114.5z M178.8-107.4l-1.7,1c0.3,0.6,0.7,1.1,1,1.7l1.7-1
			C179.5-106.2,179.1-106.8,178.8-107.4z M-179.6-105.9c-0.3,0.6-0.7,1.2-1,1.7l1.7,1c0.3-0.6,0.7-1.1,1-1.7L-179.6-105.9z
			 M183.8-98.6l-1.8,0.9c0.3,0.6,0.6,1.2,0.9,1.8l1.8-0.9C184.4-97.4,184.1-98,183.8-98.6z M-184.5-97.2c-0.3,0.6-0.6,1.2-0.9,1.8
			l1.8,0.9c0.3-0.6,0.6-1.2,0.9-1.8L-184.5-97.2z M188.3-89.6l-1.8,0.9c0.3,0.6,0.6,1.2,0.9,1.8l1.8-0.8
			C188.9-88.4,188.6-89,188.3-89.6z M-189-88.2c-0.3,0.6-0.6,1.2-0.8,1.8l1.8,0.8c0.3-0.6,0.6-1.2,0.8-1.8L-189-88.2z M192.4-80.4
			l-1.8,0.8c0.3,0.6,0.5,1.2,0.8,1.9l1.9-0.8C193-79.1,192.7-79.7,192.4-80.4z M-193-79c-0.3,0.6-0.5,1.2-0.8,1.9l1.9,0.7
			c0.2-0.6,0.5-1.2,0.7-1.9L-193-79z M196.1-71l-1.9,0.7c0.2,0.6,0.5,1.3,0.7,1.9l1.9-0.7C196.6-69.7,196.3-70.3,196.1-71z
			 M-196.6-69.5c-0.2,0.6-0.4,1.3-0.7,1.9l1.9,0.7c0.2-0.6,0.4-1.3,0.7-1.9L-196.6-69.5z M199.3-61.4l-1.9,0.6
			c0.2,0.6,0.4,1.3,0.6,1.9l1.9-0.6C199.7-60.1,199.5-60.7,199.3-61.4z M-199.7-60c-0.2,0.6-0.4,1.3-0.6,1.9l1.9,0.6
			c0.2-0.6,0.4-1.3,0.6-1.9L-199.7-60z M202-51.7l-1.9,0.5c0.2,0.6,0.3,1.3,0.5,1.9l1.9-0.5C202.4-50.4,202.2-51,202-51.7z
			 M-202.4-50.2c-0.2,0.7-0.3,1.3-0.5,2l1.9,0.5c0.2-0.6,0.3-1.3,0.5-1.9L-202.4-50.2z M204.3-41.8l-2,0.4c0.1,0.7,0.3,1.3,0.4,2
			l2-0.4C204.6-40.5,204.4-41.2,204.3-41.8z M-204.6-40.4c-0.1,0.7-0.3,1.3-0.4,2l2,0.4c0.1-0.7,0.2-1.3,0.4-2L-204.6-40.4z
			 M206.1-31.9l-2,0.3c0.1,0.7,0.2,1.3,0.3,2l2-0.3C206.3-30.6,206.2-31.3,206.1-31.9z M-206.3-30.5c-0.1,0.7-0.2,1.3-0.3,2l2,0.3
			c0.1-0.7,0.2-1.3,0.3-2L-206.3-30.5z M207.4-21.9l-2,0.2c0.1,0.7,0.1,1.3,0.2,2l2-0.2C207.5-20.6,207.4-21.3,207.4-21.9z
			 M-207.5-20.5c-0.1,0.7-0.1,1.3-0.2,2l2,0.2c0.1-0.7,0.1-1.3,0.2-2L-207.5-20.5z M208.2-11.9l-2,0.1c0,0.7,0.1,1.3,0.1,2l2-0.1
			C208.2-10.6,208.2-11.2,208.2-11.9z M-208.2-10.4c0,0.7-0.1,1.3-0.1,2l2,0.1c0-0.7,0.1-1.3,0.1-2L-208.2-10.4z M208.5-1.8h-2
			c0,0.6,0,1.2,0,1.8v0.2h2V0C208.5-0.6,208.5-1.2,208.5-1.8z M-206.5-0.4h-2V0c0,0.7,0,1.4,0,2h2c0-0.7,0-1.3,0-2V-0.4z M206.3,8.2
			c0,0.7-0.1,1.3-0.1,2l2,0.1c0-0.7,0.1-1.3,0.1-2L206.3,8.2z M-206.3,10l-2,0.1c0,0.7,0.1,1.3,0.1,2l2-0.1
			C-206.2,11.3-206.2,10.6-206.3,10z M205.7,18.1c-0.1,0.7-0.1,1.3-0.2,2l2,0.2c0.1-0.7,0.1-1.3,0.2-2L205.7,18.1z M-205.6,19.9
			l-2,0.2c0.1,0.7,0.1,1.3,0.2,2l2-0.2C-205.4,21.3-205.5,20.6-205.6,19.9z M204.6,28c-0.1,0.7-0.2,1.3-0.3,2l2,0.3
			c0.1-0.7,0.2-1.3,0.3-2L204.6,28z M-204.4,29.8l-2,0.3c0.1,0.7,0.2,1.3,0.3,2l2-0.3C-204.2,31.2-204.3,30.5-204.4,29.8z M203,37.9
			c-0.1,0.7-0.2,1.3-0.4,2l2,0.4c0.1-0.7,0.3-1.3,0.4-2L203,37.9z M-202.7,39.7l-2,0.4c0.1,0.7,0.3,1.3,0.4,2l2-0.4
			C-202.4,41-202.6,40.3-202.7,39.7z M201,47.7c-0.2,0.6-0.3,1.3-0.5,1.9l1.9,0.5c0.2-0.7,0.3-1.3,0.5-2L201,47.7z M-200.6,49.4
			l-1.9,0.5c0.2,0.7,0.3,1.3,0.5,2l1.9-0.5C-200.2,50.7-200.4,50.1-200.6,49.4z M198.4,57.3c-0.2,0.6-0.4,1.3-0.6,1.9l1.9,0.6
			c0.2-0.6,0.4-1.3,0.6-1.9L198.4,57.3z M-197.9,59l-1.9,0.6c0.2,0.6,0.4,1.3,0.6,1.9l1.9-0.6C-197.6,60.3-197.7,59.7-197.9,59z
			 M195.5,66.8c-0.2,0.6-0.4,1.3-0.7,1.9l1.9,0.7c0.2-0.6,0.4-1.3,0.7-1.9L195.5,66.8z M-194.8,68.6l-1.9,0.7
			c0.2,0.6,0.5,1.3,0.7,1.9l1.9-0.7C-194.4,69.8-194.6,69.2-194.8,68.6z M192,76.2c-0.2,0.6-0.5,1.2-0.7,1.9l1.9,0.8
			c0.3-0.6,0.5-1.2,0.8-1.9L192,76.2z M-191.3,77.9l-1.9,0.8c0.3,0.6,0.5,1.2,0.8,1.9l1.8-0.8C-190.8,79.1-191,78.5-191.3,77.9z
			 M188.1,85.3c-0.3,0.6-0.6,1.2-0.8,1.8l1.8,0.8c0.3-0.6,0.6-1.2,0.8-1.8L188.1,85.3z M-187.3,87.1l-1.8,0.8
			c0.3,0.6,0.6,1.2,0.9,1.8l1.8-0.9C-186.7,88.3-187,87.7-187.3,87.1z M183.8,94.3c-0.3,0.6-0.6,1.2-0.9,1.8l1.8,0.9
			c0.3-0.6,0.6-1.2,0.9-1.8L183.8,94.3z M-182.9,96l-1.8,0.9c0.3,0.6,0.6,1.2,0.9,1.8l1.8-0.9C-182.2,97.2-182.5,96.6-182.9,96z
			 M179,103c-0.3,0.6-0.7,1.1-1,1.7l1.7,1c0.3-0.6,0.7-1.2,1-1.7L179,103z M-178,104.8l-1.7,1c0.3,0.6,0.7,1.2,1,1.7l1.7-1
			C-177.3,105.9-177.7,105.3-178,104.8z M173.8,111.5c-0.4,0.6-0.7,1.1-1.1,1.7l1.7,1.1c0.4-0.6,0.7-1.1,1.1-1.7L173.8,111.5z
			 M-172.7,113.2l-1.7,1.1c0.4,0.6,0.7,1.1,1.1,1.7l1.7-1.1C-172,114.4-172.3,113.8-172.7,113.2z M168.2,119.8
			c-0.4,0.5-0.8,1.1-1.2,1.6l1.6,1.2c0.4-0.5,0.8-1.1,1.2-1.6L168.2,119.8z M-167,121.5l-1.6,1.2c0.4,0.5,0.8,1.1,1.2,1.6l1.6-1.2
			C-166.2,122.5-166.6,122-167,121.5z M162.2,127.8c-0.4,0.5-0.8,1-1.2,1.6l1.6,1.3c0.4-0.5,0.8-1,1.3-1.6L162.2,127.8z M-161,129.4
			l-1.6,1.3c0.4,0.5,0.8,1,1.3,1.6l1.5-1.3C-160.1,130.4-160.5,129.9-161,129.4z M155.9,135.4c-0.4,0.5-0.9,1-1.3,1.5l1.5,1.3
			c0.4-0.5,0.9-1,1.3-1.5L155.9,135.4z M-154.5,137l-1.5,1.3c0.4,0.5,0.9,1,1.3,1.5l1.5-1.3C-153.6,138-154.1,137.5-154.5,137z
			 M149.1,142.8c-0.5,0.5-0.9,1-1.4,1.4l1.4,1.4c0.5-0.5,0.9-1,1.4-1.4L149.1,142.8z M-147.7,144.3l-1.4,1.4c0.5,0.5,0.9,1,1.4,1.4
			l1.4-1.4C-146.8,145.3-147.2,144.8-147.7,144.3z M142.1,149.9c-0.5,0.5-1,0.9-1.5,1.4l1.4,1.5c0.5-0.5,1-0.9,1.5-1.4L142.1,149.9z
			 M-140.6,151.3l-1.4,1.5c0.5,0.5,1,0.9,1.5,1.4l1.3-1.5C-139.6,152.2-140.1,151.7-140.6,151.3z M134.7,156.5
			c-0.5,0.4-1,0.9-1.5,1.3l1.3,1.5c0.5-0.4,1-0.9,1.5-1.3L134.7,156.5z M-133.1,157.9l-1.3,1.5c0.5,0.4,1,0.9,1.5,1.3l1.3-1.5
			C-132.1,158.7-132.6,158.3-133.1,157.9z M127,162.9c-0.5,0.4-1.1,0.8-1.6,1.2l1.2,1.6c0.5-0.4,1.1-0.8,1.6-1.2L127,162.9z
			 M-125.3,164.1l-1.2,1.6c0.5,0.4,1.1,0.8,1.6,1.2l1.2-1.6C-124.3,164.9-124.8,164.5-125.3,164.1z M118.9,168.8
			c-0.5,0.4-1.1,0.8-1.6,1.1l1.1,1.6c0.6-0.4,1.1-0.8,1.7-1.2L118.9,168.8z M-117.3,170l-1.1,1.6c0.6,0.4,1.1,0.8,1.7,1.1l1.1-1.7
			C-116.2,170.7-116.7,170.4-117.3,170z M110.6,174.4c-0.6,0.4-1.1,0.7-1.7,1.1l1.1,1.7c0.6-0.4,1.1-0.7,1.7-1.1L110.6,174.4z
			 M-108.9,175.5l-1.1,1.7c0.6,0.4,1.1,0.7,1.7,1.1l1-1.7C-107.8,176.2-108.4,175.8-108.9,175.5z M102.1,179.5
			c-0.6,0.3-1.2,0.7-1.7,1l1,1.7c0.6-0.3,1.2-0.7,1.8-1L102.1,179.5z M-100.4,180.5l-1,1.7c0.6,0.3,1.2,0.6,1.8,1l1-1.8
			C-99.2,181.2-99.8,180.8-100.4,180.5z M93.3,184.3c-0.6,0.3-1.2,0.6-1.8,0.9l0.9,1.8c0.6-0.3,1.2-0.6,1.8-0.9L93.3,184.3z
			 M-91.5,185.2l-0.9,1.8c0.6,0.3,1.2,0.6,1.8,0.9l0.9-1.8C-90.4,185.7-90.9,185.4-91.5,185.2z M84.3,188.6
			c-0.6,0.3-1.2,0.5-1.8,0.8l0.8,1.8c0.6-0.3,1.2-0.5,1.8-0.8L84.3,188.6z M-82.5,189.4l-0.8,1.8c0.6,0.3,1.2,0.5,1.8,0.8l0.8-1.8
			C-81.3,189.9-81.9,189.6-82.5,189.4z M75,192.4c-0.6,0.2-1.2,0.5-1.9,0.7l0.7,1.9c0.6-0.2,1.3-0.5,1.9-0.7L75,192.4z M-73.3,193.1
			L-74,195c0.6,0.2,1.3,0.5,1.9,0.7l0.7-1.9C-72.1,193.6-72.7,193.3-73.3,193.1z M65.6,195.9c-0.6,0.2-1.3,0.4-1.9,0.6l0.6,1.9
			c0.6-0.2,1.3-0.4,1.9-0.6L65.6,195.9z M-63.9,196.4l-0.6,1.9c0.6,0.2,1.3,0.4,1.9,0.6l0.6-1.9C-62.6,196.8-63.3,196.6-63.9,196.4z
			 M56.1,198.8c-0.6,0.2-1.3,0.4-1.9,0.5l0.5,1.9c0.6-0.2,1.3-0.4,1.9-0.5L56.1,198.8z M-54.3,199.3l-0.5,1.9
			c0.6,0.2,1.3,0.3,1.9,0.5l0.5-1.9C-53.1,199.6-53.7,199.5-54.3,199.3z M46.4,201.3c-0.6,0.1-1.3,0.3-1.9,0.4l0.4,2
			c0.7-0.1,1.3-0.3,2-0.4L46.4,201.3z M-44.7,201.7l-0.4,2c0.7,0.1,1.3,0.3,2,0.4l0.4-2C-43.4,201.9-44,201.8-44.7,201.7z
			 M36.6,203.3c-0.7,0.1-1.3,0.2-2,0.3l0.3,2c0.7-0.1,1.3-0.2,2-0.3L36.6,203.3z M-34.9,203.6l-0.3,2c0.7,0.1,1.3,0.2,2,0.3l0.3-2
			C-33.5,203.8-34.2,203.7-34.9,203.6z M26.8,204.8c-0.7,0.1-1.3,0.2-2,0.2l0.2,2c0.7-0.1,1.3-0.2,2-0.2L26.8,204.8z M-25,205
			l-0.2,2c0.7,0.1,1.3,0.2,2,0.2l0.2-2C-23.7,205.2-24.3,205.1-25,205z M16.8,205.8c-0.7,0.1-1.3,0.1-2,0.2l0.1,2
			c0.7,0,1.3-0.1,2-0.2L16.8,205.8z M-15.1,206l-0.1,2c0.7,0,1.3,0.1,2,0.1l0.1-2C-13.7,206.1-14.4,206-15.1,206z M6.9,206.4
			c-0.7,0-1.3,0-2,0.1v2c0.7,0,1.3,0,2-0.1V206.4z M-5.1,206.4v2c0.7,0,1.3,0,2,0v-2C-3.8,206.5-4.4,206.5-5.1,206.4z"/>
	</g>
</symbol>
<symbol  id="inner_x5F_circle11" viewBox="-172.8 -182.3 345.6 364.6">
	<g id="inner_x5F_circle_1_" opacity="0">
		<path opacity="0.5" fill="none" stroke="#FF1F71" stroke-width="5" stroke-miterlimit="10" enable-background="new    " d="
			M0,179.8c94.1,0,170.3-76.2,170.3-170.3S94.1-160.8,0-160.8S-170.3-84.6-170.3,9.5S-94.1,179.8,0,179.8z"/>
	</g>
	<path fill="none" stroke="#FF1F71" stroke-width="5" stroke-miterlimit="10" d="M-34.9-182.3v358.5
		c-77.3-16.1-135.4-84.6-135.4-166.7c0-63.6,34.9-119.1,86.6-148.3"/>
	<path fill="none" stroke="#FF1F71" stroke-width="5" stroke-miterlimit="10" d="M34.9,71.3v-228.5
		c77.3,16.1,135.4,84.6,135.4,166.7c0,63.6-34.9,119.1-86.6,148.3"/>
</symbol>
<symbol  id="middle_x5F_stick_2_" viewBox="-18.6 -233.5 37.2 467">
	<path fill="#FF1F71" d="M18.5-213.7v426.4c-6.1,0.5-12.3,0.8-18.5,0.8s-12.4-0.3-18.5-0.8v-426.4c6.1-0.5,12.3-0.8,18.5-0.8
		S12.4-214.3,18.5-213.7z"/>
	<path fill="#FF1F71" d="M18.5,224.7v8.8h-37.1v-8.8c6.1,0.5,12.3,0.8,18.5,0.8S12.4,225.2,18.5,224.7z"/>
	<path fill="#FF1F71" d="M0-222.5c-6.2,0-12.4,0.3-18.5,0.8v-4v-7.8h37.1v7.8v4C12.4-222.3,6.2-222.5,0-222.5z"/>
</symbol>
<g>
	<g>
	</g>
	<g>
		<path fill="#FF1F71" d="M224.7,549.5L215,547l58-227L81.5,420.1l-4.6-8.9l201.4-105.3c1.7-0.9,3.9-0.7,5.4,0.5
			c1.5,1.2,2.2,3.2,1.7,5.2L224.7,549.5z"/>
	</g>
	<g>
		<path fill="#FF1F71" d="M219.9,551.2c-1.1,0-2.2-0.6-2.7-1.6l-53.9-105.4c-0.6-1.1-0.4-2.4,0.4-3.3l114.7-132.5
			c0.9-1.1,2.4-1.3,3.7-0.7c1.2,0.6,1.9,2.1,1.5,3.4L222.8,549c-0.3,1.2-1.3,2.1-2.6,2.2C220.1,551.2,220,551.2,219.9,551.2z
			 M169.5,443.2l49.4,96.6l55.6-217.9L169.5,443.2z"/>
	</g>
	<g>
		<path fill="#FF1F71" d="M219.9,551.2c-1.1,0-2.1-0.6-2.7-1.6l-53.1-103.8l-76.5-0.9c-1.7,0-3-1.4-3-3c0-1.6,1.4-3,3-3c0,0,0,0,0,0
			l78.3,0.9c1.1,0,2.1,0.6,2.6,1.6l53.9,105.4c0.8,1.5,0.2,3.3-1.3,4C220.8,551.1,220.4,551.2,219.9,551.2z"/>
	</g>
	<g>
		<path fill="#FF1F71" d="M60.3,465.7C60.3,465.7,60.3,465.7,60.3,465.7c-13.6,0-25.6-9.2-29.2-22.4c-2.1-7.8-1.1-16,3-23
			c4-7,10.5-12,18.3-14.1c2.6-0.7,5.3-1.1,7.9-1.1c13.6,0,25.6,9.2,29.2,22.4c4.4,16.1-5.2,32.8-21.3,37.1
			C65.7,465.3,63,465.7,60.3,465.7z M60.4,411.1c-2.1,0-4.3,0.3-6.4,0.8c-6.3,1.7-11.5,5.7-14.7,11.3c-3.2,5.6-4.1,12.2-2.4,18.4
			c2.9,10.6,12.5,17.9,23.4,17.9c0,0,0,0,0,0c2.1,0,4.3-0.3,6.3-0.8c12.9-3.5,20.6-16.9,17.1-29.8C80.9,418.5,71.3,411.1,60.4,411.1
			z"/>
	</g>
	<g>
		<path fill="#FF1F71" d="M47.1,439c-2-7.6,2.4-15.4,10-17.4c7.6-2,15.4,2.4,17.4,10c2,7.6-2.4,15.4-10,17.4
			C57,451,49.2,446.5,47.1,439z"/>
	</g>
	<g>
		<path fill="#FF1F71" d="M264.9,314.6c-2.3-8.7,2.8-17.6,11.5-20c8.7-2.3,17.6,2.8,20,11.5c2.3,8.7-2.8,17.6-11.5,19.9
			C276.2,328.4,267.3,323.2,264.9,314.6z"/>
	</g>
	<g>
		<path fill="#FF1F71" d="M206.2,551.9c-2-7.6,2.4-15.4,10-17.4c7.6-2,15.4,2.4,17.4,10c2,7.6-2.4,15.4-10,17.4
			C216,564,208.2,559.5,206.2,551.9z"/>
	</g>
	<g>
		<path fill="#FF1F71" d="M144.6,449.2c-3.2-11.9,3.8-24.1,15.7-27.3c11.9-3.2,24.1,3.8,27.3,15.7c3.2,11.9-3.8,24.1-15.7,27.3
			C160.1,468.1,147.8,461,144.6,449.2z"/>
	</g>
	<g>
		<g>
			<path fill="#FF1F71" d="M280.9,551.1c-1.6-5.8,1.9-11.8,7.7-13.3c5.8-1.6,11.8,1.9,13.3,7.7c1.6,5.8-1.9,11.8-7.7,13.3
				C288.4,560.3,282.5,556.9,280.9,551.1z"/>
		</g>
		<g>
			<line fill="#FF1F71" x1="219.9" y1="548.2" x2="267.5" y2="548.2"/>
			<path fill="#FF1F71" d="M219.9,551.2c-1.7,0-3-1.3-3-3s1.3-3,3-3l47.6,0c1.7,0,3,1.3,3,3s-1.3,3-3,3L219.9,551.2z"/>
		</g>
		<g>
			<path fill="#FF1F71" d="M291.4,575.1C291.4,575.1,291.4,575.1,291.4,575.1c-12.1,0-22.8-8.2-25.9-19.9
				c-1.9-6.9-0.9-14.2,2.6-20.4c3.6-6.2,9.4-10.7,16.3-12.6c2.3-0.6,4.7-0.9,7-0.9c12.1,0,22.8,8.2,25.9,19.9
				c3.9,14.3-4.6,29.1-18.9,33C296.1,574.8,293.7,575.1,291.4,575.1z M291.4,527.3c-1.8,0-3.7,0.2-5.5,0.7
				c-5.4,1.5-9.9,4.9-12.7,9.8c-2.8,4.8-3.5,10.5-2.1,15.9c2.5,9.1,10.7,15.4,20.1,15.4h0c1.8,0,3.7-0.2,5.5-0.7
				c11.1-3,17.7-14.5,14.7-25.6C309.1,533.7,300.8,527.3,291.4,527.3z"/>
		</g>
	</g>
	<g>
		<path fill="#FF1F71" d="M286,417.2h-11.4l21.4-79.9h11.4l31.4,62l16.6-62h11.4l-21.4,79.9H334l-31.4-62L286,417.2z"/>
		<path fill="#FF1F71" d="M370.7,357.9h10.9l-13,48.4h30.6l13-48.4h11l-15.9,59.3h-11l2.7-10c-0.5,1.4-1.2,2.7-2.2,3.9
			c-1,1.2-2.1,2.3-3.3,3.2c-1.2,0.9-2.5,1.6-3.9,2.1c-1.4,0.5-2.8,0.8-4.2,0.8h-19.7c-1.5,0-2.8-0.3-4-0.9c-1.2-0.6-2.1-1.4-2.9-2.3
			c-0.7-1-1.2-2.1-1.4-3.5c-0.2-1.3-0.1-2.8,0.3-4.3L370.7,357.9z"/>
		<path fill="#FF1F71" d="M448.5,335l-22,82.2h-10.9l22-82.2H448.5z"/>
		<path fill="#FF1F71" d="M467.6,335l-22,82.2h-10.9l22-82.2H467.6z"/>
		<path fill="#FF1F71" d="M320.6,501c-0.4,1.6-1.1,3-2.1,4.4c-1,1.4-2.1,2.6-3.4,3.6c-1.3,1-2.8,1.9-4.3,2.5
			c-1.6,0.6-3.1,0.9-4.7,0.9h-41.4l-9.7,11.4h-9l10.2-12.2c-0.9-0.4-1.7-1-2.3-1.7c-0.7-0.7-1.2-1.5-1.5-2.5c-0.4-0.9-0.6-1.9-0.6-3
			c-0.1-1.1,0.1-2.2,0.4-3.4l15.3-57.1c0.4-1.6,1.1-3,2.1-4.4s2.1-2.6,3.4-3.6c1.3-1,2.8-1.8,4.3-2.4c1.6-0.6,3.1-0.9,4.7-0.9h41
			l9.6-11.4h9.6l-10.4,12.3c0.9,0.4,1.7,1,2.4,1.7c0.7,0.7,1.2,1.5,1.6,2.4s0.6,1.9,0.7,3s-0.1,2.2-0.4,3.4L320.6,501z M263.5,501
			h1.6l48-57.1h-34.4L263.5,501z M322.7,443.9L274.4,501h34.8l15.3-57.1H322.7z"/>
		<path fill="#FF1F71" d="M382.3,501.4c-0.4,1.5-1.1,3-2,4.3c-0.9,1.3-2,2.5-3.3,3.5s-2.6,1.8-4.1,2.3c-1.5,0.6-3,0.9-4.5,0.9h-30.6
			c-1.5,0-2.8-0.3-4-0.9c-1.2-0.6-2.1-1.4-2.9-2.3c-0.7-1-1.2-2.1-1.4-3.5c-0.2-1.3-0.1-2.8,0.3-4.3l19.1-71.2h10.9l-8.9,33.3
			c0.5-1.4,1.2-2.8,2.1-4.1c0.9-1.3,2-2.4,3.3-3.3c1.2-0.9,2.6-1.7,4-2.2c1.4-0.5,2.9-0.8,4.4-0.8h19.6c1.5,0,2.9,0.3,4.1,0.9
			c1.2,0.6,2.1,1.4,2.9,2.3c0.7,1,1.2,2.1,1.4,3.5c0.2,1.3,0.1,2.8-0.3,4.3L382.3,501.4z M350.8,464.1l-10,37.4h30.6l10-37.4H350.8z
			"/>
		<path fill="#FF1F71" d="M384.7,525.4l19.4-72.3h11l-19.4,72.3c-0.4,1.5-1.1,3-2,4.3c-0.9,1.3-2,2.5-3.3,3.5s-2.6,1.8-4.1,2.3
			c-1.5,0.6-3,0.9-4.5,0.9h-8.6l2.9-11H384.7z M409.6,430.2h12.1l-3.1,11.4h-12.1L409.6,430.2z"/>
		<path fill="#FF1F71" d="M464.6,488.3h-39.3l-3.5,13.1h39.3l-2.9,11h-39.3c-1.5,0-2.8-0.3-4-0.9c-1.2-0.6-2.1-1.4-2.9-2.3
			c-0.7-1-1.2-2.1-1.4-3.5c-0.2-1.3-0.1-2.8,0.3-4.3l10-37.4c0.4-1.5,1.1-3,2-4.3c0.9-1.3,2-2.5,3.3-3.5c1.2-1,2.6-1.8,4.1-2.3
			c1.5-0.6,3-0.9,4.5-0.9h28.3c1.5,0,2.9,0.3,4.1,0.9c1.2,0.6,2.1,1.4,2.9,2.3c0.7,1,1.2,2.1,1.4,3.5c0.2,1.3,0.1,2.8-0.3,4.3
			L464.6,488.3z M431.8,464.1l-3.6,13.3h28.3l3.6-13.3H431.8z"/>
		<path fill="#FF1F71" d="M490.2,464.1l-10,37.4h28.3l2.7-10h11l-2.7,10c-0.4,1.5-1.1,3-2,4.3c-0.9,1.3-2,2.5-3.3,3.5
			c-1.2,1-2.6,1.8-4.1,2.3c-1.5,0.6-3,0.9-4.5,0.9h-28.3c-1.5,0-2.8-0.3-4-0.9c-1.2-0.6-2.1-1.4-2.9-2.3c-0.7-1-1.2-2.1-1.4-3.5
			c-0.2-1.3-0.1-2.8,0.3-4.3l10-37.4c0.4-1.5,1.1-3,2-4.3c0.9-1.3,2-2.5,3.3-3.5c1.2-1,2.6-1.8,4.1-2.3c1.5-0.6,3-0.9,4.5-0.9h28.3
			c1.5,0,2.9,0.3,4.1,0.9c1.2,0.6,2.1,1.4,2.9,2.3c0.7,1,1.2,2.1,1.4,3.5c0.2,1.3,0.1,2.8-0.3,4.3l-2.7,10h-11l2.7-10H490.2z"/>
		<path fill="#FF1F71" d="M537.2,453.1h14.5l4.9-18.3h11l-4.9,18.3h19.5l-2.9,11h-19.5l-10,37.4h19.5l-2.9,11h-19.5
			c-1.5,0-2.8-0.3-4-0.9c-1.2-0.6-2.1-1.4-2.9-2.3c-0.7-1-1.2-2.1-1.4-3.5c-0.2-1.3-0.1-2.8,0.3-4.3l10-37.4h-14.5L537.2,453.1z"/>
	</g>
	<g>
		<path fill="#FF1F71" d="M73.7,459.2"/>
	</g>
	<g>
		<path fill="#FF1F71" d="M73.7,462.7"/>
	</g>
	<g>
		
			<rect x="64.4" y="497.2" transform="matrix(0.8388 0.5445 -0.5445 0.8388 297.4651 -0.1379)" fill="#FF1F71" width="169.1" height="10"/>
	</g>
</g>
</svg>
