<?xml version="1.0" encoding="utf-8"?>
<!-- Generator: Adobe Illustrator 18.1.1, SVG Export Plug-In . SVG Version: 6.00 Build 0)  -->
<svg version="1.1" id="Layer_1" xmlns="http://www.w3.org/2000/svg" xmlns:xlink="http://www.w3.org/1999/xlink" x="0px" y="0px"
	 viewBox="71.6 412.2 539.9 374.9" enable-background="new 71.6 412.2 539.9 374.9" xml:space="preserve">
<g>
	<g>
		<g>
			<path fill="#FF1F71" d="M315.8,594.9h-11.4l21.4-79.7h11.4l31.3,61.9l16.6-61.9h11.4l-21.4,79.7h-11.4L332.3,533L315.8,594.9z"/>
			<path fill="#FF1F71" d="M400.3,535.7h10.9l-13,48.3h30.5l13-48.3h11l-15.9,59.2h-11l2.7-10c-0.5,1.4-1.2,2.7-2.2,3.9
				c-1,1.2-2.1,2.3-3.3,3.2c-1.2,0.9-2.5,1.6-3.9,2.1s-2.8,0.8-4.2,0.8h-19.7c-1.5,0-2.8-0.3-4-0.9c-1.2-0.6-2.1-1.4-2.9-2.3
				c-0.7-1-1.2-2.1-1.4-3.5c-0.2-1.3-0.1-2.8,0.3-4.3L400.3,535.7z"/>
			<path fill="#FF1F71" d="M478,512.9l-22,82h-10.9l22-82H478L478,512.9z"/>
			<path fill="#FF1F71" d="M497,512.9l-22,82h-10.9l22-82H497L497,512.9z"/>
			<path fill="#FF1F71" d="M350.3,678.5c-0.4,1.6-1.1,3-2.1,4.4c-1,1.4-2.1,2.6-3.4,3.6c-1.3,1-2.8,1.9-4.3,2.5
				c-1.6,0.6-3.1,0.9-4.7,0.9h-41.3l-9.7,11.4h-9l10.2-12.2c-0.9-0.4-1.7-1-2.3-1.7c-0.7-0.7-1.2-1.5-1.5-2.5
				c-0.4-0.9-0.6-1.9-0.6-3c-0.1-1.1,0.1-2.2,0.4-3.4l15.3-57c0.4-1.6,1.1-3,2.1-4.4s2.1-2.6,3.4-3.6s2.8-1.8,4.3-2.5
				c1.6-0.6,3.1-0.9,4.7-0.9h40.9l9.6-11.4h9.6l-10.6,12.4c0.9,0.4,1.7,1,2.4,1.7c0.7,0.7,1.2,1.5,1.6,2.4s0.6,1.9,0.7,3
				s-0.1,2.2-0.4,3.4L350.3,678.5z M293.4,678.5h1.6l47.9-57h-34.3L293.4,678.5z M352.4,621.6l-48.2,57h34.7l15.3-57H352.4z"/>
			<path fill="#FF1F71" d="M411.9,679c-0.4,1.5-1.1,3-2,4.3c-0.9,1.3-2,2.5-3.3,3.5s-2.6,1.8-4.1,2.3c-1.5,0.6-3,0.9-4.5,0.9h-30.5
				c-1.5,0-2.8-0.3-4-0.9s-2.1-1.4-2.9-2.3c-0.7-1-1.2-2.1-1.4-3.5c-0.2-1.3-0.1-2.8,0.3-4.3l19.1-71.1h10.9l-8.9,33.2
				c0.5-1.4,1.2-2.8,2.1-4.1c0.9-1.3,2-2.4,3.3-3.3c1.2-0.9,2.6-1.7,4-2.2s2.9-0.8,4.4-0.8h19.6c1.5,0,2.9,0.3,4.1,0.9
				c1.2,0.6,2.1,1.4,2.9,2.3c0.7,1,1.2,2.1,1.4,3.5c0.2,1.3,0.1,2.8-0.3,4.3L411.9,679z M380.5,641.7l-10,37.3H401l10-37.3H380.5z"
				/>
			<path fill="#FF1F71" d="M414.3,702.9l19.4-72.2h11l-19.4,72.2c-0.4,1.5-1.1,3-2,4.3c-0.9,1.3-2,2.5-3.3,3.5
				c-1.3,1-2.6,1.8-4.1,2.3c-1.5,0.6-3,0.9-4.5,0.9h-8.6l2.9-11L414.3,702.9L414.3,702.9z M439.1,608h12.1l-3.1,11.4h-12L439.1,608z
				"/>
			<path fill="#FF1F71" d="M494,665.9h-39.2l-3.5,13.1h39.2l-2.9,11h-39.2c-1.5,0-2.8-0.3-4-0.9c-1.2-0.6-2.1-1.4-2.9-2.3
				c-0.7-1-1.2-2.1-1.4-3.5c-0.2-1.3-0.1-2.8,0.3-4.3l10-37.3c0.4-1.5,1.1-3,2-4.3c0.9-1.3,2-2.5,3.3-3.5c1.2-1,2.6-1.8,4.1-2.3
				c1.5-0.6,3-0.9,4.5-0.9h28.2c1.5,0,2.9,0.3,4.1,0.9c1.2,0.6,2.1,1.4,2.9,2.3c0.7,1,1.2,2.1,1.4,3.5c0.2,1.3,0.1,2.8-0.3,4.3
				L494,665.9z M461.3,641.7l-3.6,13.3H486l3.6-13.3H461.3z"/>
			<path fill="#FF1F71" d="M519.7,641.7l-10,37.3h28.2l2.7-10h11l-2.7,10c-0.4,1.5-1.1,3-2,4.3c-0.9,1.3-2,2.5-3.3,3.5
				c-1.2,1-2.6,1.8-4.1,2.3c-1.5,0.6-3,0.9-4.5,0.9h-28.2c-1.5,0-2.8-0.3-4-0.9s-2.1-1.4-2.9-2.3c-0.7-1-1.2-2.1-1.4-3.5
				c-0.2-1.3-0.1-2.8,0.3-4.3l10-37.3c0.4-1.5,1.1-3,2-4.3c0.9-1.3,2-2.5,3.3-3.5c1.2-1,2.6-1.8,4.1-2.3c1.5-0.6,3-0.9,4.5-0.9h28.2
				c1.5,0,2.9,0.3,4.1,0.9s2.1,1.4,2.9,2.3c0.7,1,1.2,2.1,1.4,3.5c0.2,1.3,0.1,2.8-0.3,4.3l-2.7,10h-11l2.7-10H519.7z"/>
			<path fill="#FF1F71" d="M566.6,630.7h14.5l4.9-18.3h11l-4.9,18.3h19.5l-2.9,11h-19.5l-10,37.3h19.5l-2.9,11h-19.5
				c-1.5,0-2.8-0.3-4-0.9c-1.2-0.6-2.1-1.4-2.9-2.3c-0.7-1-1.2-2.1-1.4-3.5c-0.2-1.3-0.1-2.8,0.3-4.3l10-37.3h-14.5L566.6,630.7z"/>
		</g>
		<g>
			<path fill="#FF1F71" d="M441.5,694.8l-9.7,36.3h21.8l-1.6,6.1h-27.8l11.4-42.3L441.5,694.8L441.5,694.8z"/>
			<path fill="#FF1F71" d="M457,723.3c0.2-0.8,0.6-1.6,1.1-2.3s1.1-1.3,1.7-1.8c0.7-0.5,1.4-1,2.2-1.3c0.8-0.3,1.6-0.5,2.4-0.5h15
				l1.6-6.1h-19l1.6-5.8h19c0.8,0,1.5,0.2,2.2,0.5c0.7,0.3,1.1,0.7,1.5,1.2s0.6,1.1,0.7,1.9c0.1,0.7,0.1,1.5-0.2,2.3l-6.9,25.6h-5.8
				l1.4-5.3c-0.3,0.7-0.6,1.4-1.1,2.1c-0.5,0.7-1.1,1.2-1.7,1.7c-0.6,0.5-1.4,0.9-2.1,1.1c-0.7,0.3-1.5,0.4-2.2,0.4h-9.3
				c-0.8,0-1.5-0.2-2.1-0.5c-0.6-0.3-1.1-0.7-1.5-1.2s-0.6-1.1-0.7-1.8c-0.1-0.7-0.1-1.5,0.2-2.3L457,723.3z M460.6,731.3h15
				l2.1-7.9h-15L460.6,731.3z"/>
			<path fill="#FF1F71" d="M513.7,731.3c-0.2,0.8-0.6,1.6-1.1,2.3c-0.5,0.7-1.1,1.3-1.7,1.8c-0.7,0.5-1.4,0.9-2.2,1.2
				c-0.8,0.3-1.6,0.5-2.4,0.5H490c-0.8,0-1.5-0.2-2.1-0.5c-0.6-0.3-1.1-0.7-1.5-1.2s-0.6-1.1-0.7-1.8s-0.1-1.5,0.2-2.3l10.1-37.7
				h5.8l-4.7,17.7c0.2-0.8,0.6-1.5,1.1-2.2c0.5-0.7,1.1-1.3,1.7-1.8c0.7-0.5,1.4-0.9,2.1-1.2s1.5-0.4,2.3-0.4h10.4
				c0.8,0,1.5,0.2,2.2,0.5c0.7,0.3,1.1,0.7,1.5,1.2c0.4,0.5,0.6,1.1,0.7,1.9c0.1,0.7,0.1,1.5-0.2,2.3L513.7,731.3z M496.9,711.5
				l-5.3,19.9h16.2l5.3-19.9H496.9z"/>
			<path fill="#FF1F71" d="M537,731.3l2-7.3h-13.8c-0.8,0-1.5-0.2-2.2-0.5c-0.6-0.3-1.1-0.7-1.5-1.2s-0.6-1.1-0.7-1.9
				c-0.1-0.7-0.1-1.5,0.2-2.3l1.8-6.7c0.2-0.8,0.6-1.6,1.1-2.3c0.5-0.7,1.1-1.3,1.7-1.9c0.7-0.5,1.4-0.9,2.2-1.2s1.6-0.5,2.4-0.5
				h18.4l-1.6,5.8h-18.4l-1.8,6.7h13.8c0.8,0,1.5,0.2,2.1,0.5c0.6,0.3,1.1,0.7,1.5,1.2s0.6,1.1,0.8,1.8c0.1,0.7,0.1,1.5-0.2,2.3
				l-2,7.3c-0.2,0.8-0.6,1.6-1.1,2.3s-1.1,1.3-1.8,1.8s-1.4,0.9-2.2,1.2c-0.8,0.3-1.6,0.5-2.4,0.5h-19.7l1.6-5.8H537V731.3z"/>
		</g>
	</g>
</g>
<g>
	<g>
		<path fill="#FF1F71" d="M189.6,744.7"/>
	</g>
	<g>
		<path fill="#FF1F71" d="M252.2,673.4c6.5,6.1,6.9,16.2,0.8,22.7c-6.1,6.5-16.2,6.9-22.7,0.8c-6.5-6.1-6.9-16.3-0.8-22.8
			C235.5,667.7,245.6,667.3,252.2,673.4z"/>
	</g>
	<g>
		<path fill="#FF1F71" d="M161.1,412.6c8.3-1.8,16.5,3.4,18.4,11.7c1.8,8.3-3.4,16.5-11.7,18.4c-8.3,1.8-16.5-3.4-18.3-11.7
			C147.6,422.7,152.9,414.5,161.1,412.6z"/>
	</g>
	<g>
		<path fill="#FF1F71" d="M171.2,580.5"/>
	</g>
	<g>
		<path fill="#FF1F71" d="M322.2,485.9"/>
	</g>
	<g>
		<path fill="#FF1F71" d="M322.2,485.9"/>
	</g>
	<g>
		<path fill="#FF1F71" d="M171.2,580.5"/>
	</g>
	<g>
		<path fill="#FF1F71" d="M240.3,684.4"/>
	</g>
	<g>
		
			<rect x="150" y="614.9" transform="matrix(0.5542 0.8324 -0.8324 0.5542 604.0944 112.0155)" fill="#FF1F71" width="94.9" height="10.2"/>
	</g>
	<g>
		<path fill="#FF1F71" d="M200.9,734.2c-0.7,0-1.4-0.2-2-0.7c-1.3-1.1-1.4-3-0.3-4.3l20.5-23.8c1.1-1.3,3-1.4,4.3-0.3
			c1.3,1.1,1.4,3,0.3,4.3l-20.5,23.8C202.6,733.8,201.7,734.2,200.9,734.2z"/>
	</g>
	<g>
		<path fill="#FF1F71" d="M325.2,486.9"/>
	</g>
	<g>
		<path fill="#FF1F71" d="M325.2,486.9"/>
	</g>
	<g>
		<path fill="#FF1F71" d="M171.2,580.5"/>
	</g>
	<g>
		<path fill="#FF1F71" d="M325.2,492c0,0-0.1,0-0.1,0l-91.1-2.4c-2.8-0.1-5.1-2.4-5-5.2c0.1-2.8,2.3-5,5.1-5c0,0,0.1,0,0.1,0
			l91.1,2.4c2.8,0.1,5.1,2.4,5,5.2C330.3,489.8,328,492,325.2,492z"/>
	</g>
	<g>
		<path fill="#FF1F71" d="M191.1,464.7c-0.9,0-1.8-0.4-2.4-1.2l-26.6-34.3c-1-1.3-0.8-3.3,0.5-4.3c1.3-1,3.3-0.8,4.3,0.5l26.6,34.3
			c1,1.3,0.8,3.3-0.5,4.3C192.4,464.5,191.7,464.7,191.1,464.7z"/>
	</g>
	<g>
		<path fill="#FF1F71" d="M204.8,513.6c-13.7,0-25.8-9.7-28.7-23.1c-1.7-7.7-0.3-15.6,3.9-22.2c4.2-6.6,10.8-11.2,18.5-13
			c2.1-0.5,4.3-0.7,6.4-0.7c13.7,0,25.8,9.7,28.7,23.1c1.7,7.7,0.3,15.6-3.9,22.2c-4.2,6.6-10.8,11.2-18.5,13
			C209.1,513.4,206.9,513.6,204.8,513.6z M204.8,460.8c-1.7,0-3.4,0.2-5.1,0.6c-6.1,1.4-11.3,5-14.6,10.3
			c-3.3,5.3-4.4,11.5-3.1,17.6c2.4,10.6,11.9,18.3,22.7,18.3c1.7,0,3.4-0.2,5.1-0.6c6.1-1.4,11.3-5,14.6-10.3
			c3.3-5.3,4.4-11.5,3.1-17.6C225.2,468.5,215.7,460.8,204.8,460.8z"/>
	</g>
	<g>
		<path fill="#FF1F71" d="M182.8,568c6.9,6.4,7.3,17.2,0.9,24.2c-6.4,6.9-17.2,7.3-24.2,0.8c-6.9-6.4-7.3-17.2-0.9-24.2
			C165.1,561.9,175.9,561.6,182.8,568z"/>
	</g>
	<g>
		<path fill="#FF1F71" d="M241.2,717.5C241.2,717.5,241.2,717.5,241.2,717.5c-17.5,0-31.7-13.7-32.3-31.2
			c-0.3-8.6,2.8-16.8,8.6-23.2c5.9-6.3,13.9-10,22.5-10.3c18-0.6,32.8,13.3,33.4,31.1c0.3,8.6-2.8,16.8-8.6,23.2
			c-5.9,6.3-13.9,10-22.5,10.3C241.9,717.5,241.5,717.5,241.2,717.5z M241.2,659c-0.3,0-0.6,0-0.9,0c-7,0.2-13.5,3.2-18.2,8.3
			s-7.3,11.8-7,18.8c0.5,14.2,12,25.2,26.1,25.2c0,0,0,0,0,0c0.3,0,0.6,0,0.9,0c7-0.2,13.5-3.2,18.2-8.3c4.8-5.1,7.3-11.8,7-18.8
			C266.8,670.1,255.4,659,241.2,659z"/>
	</g>
	<g>
		<path fill="#FF1F71" d="M321.9,472c8.2-1.8,16.3,3.3,18.2,11.6c1.8,8.2-3.3,16.3-11.5,18.1c-8.2,1.8-16.3-3.3-18.2-11.5
			C308.5,482,313.7,473.9,321.9,472z"/>
	</g>
	<g>
		<path fill="#FF1F71" d="M111.2,604.6c4.8,4.3,5.2,11.6,0.9,16.3c-4.3,4.8-11.6,5.2-16.3,0.9c-4.8-4.3-5.2-11.6-0.9-16.3
			C99.1,600.7,106.4,600.3,111.2,604.6z"/>
	</g>
	<g>
		
			<rect x="147.1" y="567.7" transform="matrix(0.459 0.8885 -0.8885 0.459 606.6289 186.5117)" fill="#FF1F71" width="6.1" height="47.2"/>
	</g>
	<g>
		<path fill="#FF1F71" d="M103.4,645C103.4,645,103.4,645,103.4,645c-7.9,0-15.4-2.9-21.3-8.2c-13.1-11.7-14.2-31.9-2.4-45
			c6-6.7,14.7-10.6,23.7-10.6c7.9,0,15.4,2.9,21.3,8.2c6.3,5.7,10.1,13.5,10.5,22c0.5,8.5-2.4,16.7-8.1,23
			C121.1,641.2,112.5,645,103.4,645z M103.4,587.4c-7.3,0-14.3,3.1-19.2,8.5c-9.5,10.6-8.6,26.9,2,36.3c4.7,4.2,10.8,6.6,17.2,6.6
			c0,0,0,0,0,0c7.3,0,14.3-3.1,19.2-8.5c4.6-5.1,6.9-11.7,6.5-18.6c-0.4-6.9-3.4-13.2-8.5-17.8C115.9,589.8,109.8,587.4,103.4,587.4
			z"/>
	</g>
	<g>
		<path fill="#FF1F71" d="M211,720.3c6,5.6,6.3,15,0.7,21c-5.6,6-15,6.3-20.9,0.7c-6-5.6-6.3-15-0.7-20.9
			C195.6,715,205,714.7,211,720.3z"/>
	</g>
	<g>
		<path fill="#FF1F71" d="M303.8,772.5c-0.9,0-1.9-0.4-2.5-1.2l-44.9-61c-1-1.4-0.7-3.3,0.6-4.3c1.4-1,3.3-0.7,4.3,0.6l44.9,61
			c1,1.4,0.7,3.3-0.6,4.3C305.1,772.3,304.5,772.5,303.8,772.5z"/>
	</g>
	<g>
		<path fill="#FF1F71" d="M248.2,656.4l-10.2-0.7l5.5-83.3c0.1-1.1,0.5-2.2,1.3-3.1l76.6-85.8l7.6,6.8l-75.4,84.5L248.2,656.4z"/>
	</g>
	<g>
		<path fill="#FF1F71" d="M303.8,787.1c-4.4,0-8.6-1.6-11.8-4.5c-3.5-3.2-5.6-7.5-5.9-12.2c-0.3-4.7,1.3-9.3,4.5-12.8
			c3.4-3.7,8.2-5.9,13.2-5.9c4.4,0,8.6,1.6,11.8,4.5c7.3,6.5,7.9,17.8,1.4,25.1C313.7,785,308.9,787.1,303.8,787.1z M303.8,755.7
			c-3.9,0-7.6,1.7-10.2,4.5c-2.4,2.7-3.7,6.2-3.5,9.8c0.2,3.6,1.8,7,4.5,9.4c2.5,2.3,5.7,3.5,9.1,3.5c3.9,0,7.6-1.7,10.2-4.5
			c5-5.6,4.6-14.2-1-19.3C310.5,757,307.2,755.7,303.8,755.7z"/>
	</g>
	<g>
		<path fill="#FF1F71" d="M201.5,469.1c8.3-1.8,16.5,3.4,18.3,11.7c1.8,8.3-3.4,16.5-11.7,18.4c-8.3,1.8-16.5-3.4-18.4-11.7
			C188,479.2,193.2,471,201.5,469.1z"/>
	</g>
	<g>
		<path fill="#FF1F71" d="M309.1,763.7c3.1,2.9,3.3,7.8,0.4,10.9c-2.9,3.1-7.8,3.3-10.9,0.4c-3.1-2.9-3.3-7.8-0.4-10.9
			C301.1,761,306,760.8,309.1,763.7z"/>
	</g>
	<g>
		<path fill="#FF1F71" d="M171.2,583.6c-1.6,0-2.9-1.2-3-2.8c-0.2-1.7,1.1-3.2,2.7-3.4l77.5-7.8c1.7-0.2,3.2,1.1,3.4,2.7
			c0.2,1.7-1.1,3.2-2.7,3.4l-77.5,7.8C171.4,583.6,171.3,583.6,171.2,583.6z"/>
	</g>
	<g>
		<path fill="#FF1F71" d="M257.6,562.7c5.5,4.9,6,13.4,1,18.9c-4.9,5.5-13.4,6-18.9,1c-5.5-4.9-6-13.4-1-18.9
			C243.6,558.2,252.1,557.7,257.6,562.7z"/>
	</g>
	<g>
		<path fill="#FF1F71" d="M171.4,582.8c-0.5,0-1.1-0.1-1.6-0.3c-2.7-0.9-4.1-3.8-3.2-6.5l22.1-66.5c0.9-2.7,3.8-4.1,6.5-3.2
			c2.7,0.9,4.1,3.8,3.2,6.5l-22.1,66.5C175.5,581.4,173.5,582.8,171.4,582.8z"/>
	</g>
</g>
</svg>
