<?xml version="1.0" encoding="utf-8"?>
<!-- Generator: Adobe Illustrator 18.1.1, SVG Export Plug-In . SVG Version: 6.00 Build 0)  -->
<svg version="1.1" id="Layer_1" xmlns="http://www.w3.org/2000/svg" xmlns:xlink="http://www.w3.org/1999/xlink" x="0px" y="0px"
	 viewBox="256 321 100 199.7" enable-background="new 256 321 100 199.7" xml:space="preserve">
<circle fill="#FFFFFF" cx="306" cy="352.3" r="6.3"/>
<path fill="#FFFFFF" d="M306,326c-17.4,0-31.5,14.1-31.5,31.5V410c0,17.4,14.1,31.5,31.5,31.5c17.4,0,31.5-14.1,31.5-31.5v-52.5
	C337.5,340.1,323.4,326,306,326z M333.3,410c0,15.1-12.2,27.3-27.3,27.3c-15.1,0-27.3-12.3-27.3-27.3v-52.5
	c0-15.1,12.2-27.3,27.3-27.3c15.1,0,27.3,12.3,27.3,27.3V410z"/>
<path fill="#FFFFFF" d="M333.9,450.6L306,478.5l-27.9-27.9c-0.8-0.8-2.1-0.8-3,0c-0.8,0.8-0.8,2.1,0,3l29.4,29.4
	c0.4,0.4,0.9,0.6,1.5,0.6c0.5,0,1.1-0.2,1.5-0.6l29.4-29.4c0.8-0.8,0.8-2.1,0-3C336.1,449.7,334.7,449.7,333.9,450.6z"/>
<path fill="#FFFFFF" d="M333.9,480L306,507.9L278.1,480c-0.8-0.8-2.1-0.8-3,0c-0.8,0.8-0.8,2.1,0,3l29.4,29.4
	c0.4,0.4,0.9,0.6,1.5,0.6c0.5,0,1.1-0.2,1.5-0.6l29.4-29.4c0.8-0.8,0.8-2.1,0-3C336.1,479.2,334.7,479.2,333.9,480z"/>
</svg>
